<svg viewBox="0 0 675 601" fill="none" xmlns="http://www.w3.org/2000/svg">
<g filter="url(#filter0_f_1_3094)">
<path d="M337.412 536.86C332.168 542.347 325.912 549.86 311.753 543.39L63.4123 386.36C54.8279 380.987 51.9257 366.192 58.9123 358.86L339.912 61.3604C345.183 55.8295 355.412 50.3604 371.412 61.3605L614.912 216.36C623.43 221.774 621.886 237.565 614.912 244.86L337.412 536.86Z" fill="url(#paint0_linear_1_3094)" fill-opacity="0.16"/>
<path d="M337.412 536.86C332.168 542.347 325.912 549.86 311.753 543.39L63.4123 386.36C54.8279 380.987 51.9257 366.192 58.9123 358.86L339.912 61.3604C345.183 55.8295 355.412 50.3604 371.412 61.3605L614.912 216.36C623.43 221.774 621.886 237.565 614.912 244.86L337.412 536.86Z" fill="black" fill-opacity="0.08"/>
<path d="M337.412 536.86C332.168 542.347 325.912 549.86 311.753 543.39L63.4123 386.36C54.8279 380.987 51.9257 366.192 58.9123 358.86L339.912 61.3604C345.183 55.8295 355.412 50.3604 371.412 61.3605L614.912 216.36C623.43 221.774 621.886 237.565 614.912 244.86L337.412 536.86Z" stroke="url(#paint1_linear_1_3094)" stroke-opacity="0.1" stroke-width="0.5"/>
<path d="M337.412 536.86C332.168 542.347 325.912 549.86 311.753 543.39L63.4123 386.36C54.8279 380.987 51.9257 366.192 58.9123 358.86L339.912 61.3604C345.183 55.8295 355.412 50.3604 371.412 61.3605L614.912 216.36C623.43 221.774 621.886 237.565 614.912 244.86L337.412 536.86Z" stroke="url(#paint2_linear_1_3094)" stroke-opacity="0.1" stroke-width="0.5"/>
<path d="M337.412 536.86C332.168 542.347 325.912 549.86 311.753 543.39L63.4123 386.36C54.8279 380.987 51.9257 366.192 58.9123 358.86L339.912 61.3604C345.183 55.8295 355.412 50.3604 371.412 61.3605L614.912 216.36C623.43 221.774 621.886 237.565 614.912 244.86L337.412 536.86Z" stroke="url(#paint3_linear_1_3094)" stroke-opacity="0.22" stroke-width="0.5"/>
</g>
<defs>
<filter id="filter0_f_1_3094" x="0.75" y="0.75" width="674.235" height="599.389" filterUnits="userSpaceOnUse" color-interpolation-filters="sRGB">
<feFlood flood-opacity="0" result="BackgroundImageFix"/>
<feBlend mode="normal" in="SourceGraphic" in2="BackgroundImageFix" result="shape"/>
<feGaussianBlur stdDeviation="27" result="effect1_foregroundBlur_1_3094"/>
</filter>
<linearGradient id="paint0_linear_1_3094" x1="526.446" y1="55.0001" x2="46.4379" y2="184.739" gradientUnits="userSpaceOnUse">
<stop stop-color="#0698F9"/>
<stop offset="1" stop-color="#F906F9"/>
</linearGradient>
<linearGradient id="paint1_linear_1_3094" x1="536.912" y1="272.168" x2="122.161" y2="415.973" gradientUnits="userSpaceOnUse">
<stop offset="0.0778015" stop-color="white"/>
<stop offset="1" stop-color="#F63DF6"/>
</linearGradient>
<linearGradient id="paint2_linear_1_3094" x1="528.412" y1="259.933" x2="265.585" y2="381.911" gradientUnits="userSpaceOnUse">
<stop stop-color="#274FFF"/>
<stop offset="1" stop-color="white" stop-opacity="0"/>
</linearGradient>
<linearGradient id="paint3_linear_1_3094" x1="319.412" y1="551.529" x2="325.127" y2="498.535" gradientUnits="userSpaceOnUse">
<stop stop-color="white"/>
<stop offset="0.881916" stop-color="white" stop-opacity="0"/>
</linearGradient>
</defs>
</svg>
