<svg width="832" height="832" viewBox="0 0 832 832" fill="none" xmlns="http://www.w3.org/2000/svg">
<mask id="mask0_1_4146" style="mask-type:luminance" maskUnits="userSpaceOnUse" x="0" y="0" width="832" height="832">
<path d="M298.464 -4.98295e-05L0 533.142L533.142 831.606L831.606 298.464L298.464 -4.98295e-05Z" fill="white"/>
</mask>
<g mask="url(#mask0_1_4146)">
<path style="mix-blend-mode:screen" d="M318.781 684.904C322.631 687.059 324.006 691.932 321.851 695.782C319.696 699.631 314.823 701.006 310.974 698.851C307.124 696.696 305.749 691.823 307.904 687.974C310.059 684.125 314.932 682.749 318.781 684.904Z" fill="url(#paint0_radial_1_4146)"/>
<path style="mix-blend-mode:screen" d="M237.486 607.119C240.162 608.618 241.115 611.994 239.617 614.67C238.118 617.347 234.742 618.3 232.066 616.801C229.389 615.303 228.436 611.927 229.935 609.25C231.433 606.574 234.809 605.621 237.486 607.119Z" fill="url(#paint1_radial_1_4146)"/>
<path style="mix-blend-mode:screen" d="M670.326 226.873C673.002 228.371 673.955 231.748 672.456 234.424C670.958 237.1 667.582 238.053 664.905 236.555C662.229 235.057 661.276 231.68 662.775 229.004C664.273 226.328 667.649 225.375 670.326 226.873Z" fill="url(#paint2_radial_1_4146)"/>
<path style="mix-blend-mode:screen" d="M620.575 652.551C622.622 653.697 623.35 656.275 622.204 658.322C621.058 660.369 618.48 661.097 616.432 659.951C614.385 658.805 613.658 656.227 614.804 654.179C615.95 652.132 618.528 651.404 620.575 652.551Z" fill="url(#paint3_radial_1_4146)"/>
<path style="mix-blend-mode:screen" d="M677.014 351.84C678.784 352.831 679.418 355.076 678.427 356.846C677.436 358.617 675.19 359.25 673.42 358.259C671.65 357.268 671.017 355.023 672.008 353.253C672.999 351.483 675.244 350.849 677.014 351.84Z" fill="url(#paint4_radial_1_4146)"/>
<path style="mix-blend-mode:screen" d="M426.941 725.896C429.99 727.603 431.075 731.445 429.367 734.494C427.66 737.544 423.818 738.628 420.769 736.921C417.719 735.214 416.635 731.372 418.342 728.322C420.049 725.273 423.891 724.188 426.941 725.896Z" fill="url(#paint5_radial_1_4146)"/>
<path style="mix-blend-mode:screen" d="M292.827 344.349C294.458 345.262 295.04 347.324 294.127 348.956C293.214 350.587 291.151 351.169 289.52 350.256C287.889 349.343 287.307 347.28 288.22 345.649C289.133 344.017 291.196 343.435 292.827 344.349Z" fill="url(#paint6_radial_1_4146)"/>
<path d="M255.299 465.231C256.856 466.103 257.409 468.065 256.538 469.622C255.666 471.179 253.704 471.733 252.147 470.861C250.59 469.99 250.036 468.027 250.908 466.47C251.779 464.914 253.742 464.36 255.299 465.231Z" stroke="url(#paint7_linear_1_4146)" stroke-width="1.41752" stroke-miterlimit="10"/>
<path d="M392.331 642.072C393.472 642.711 393.875 644.142 393.237 645.282C392.598 646.423 391.168 646.827 390.027 646.188C388.886 645.55 388.482 644.119 389.121 642.978C389.76 641.837 391.19 641.434 392.331 642.072Z" stroke="url(#paint8_linear_1_4146)" stroke-width="1.0387" stroke-miterlimit="10"/>
<path d="M542.489 753.694C543.63 754.332 544.034 755.763 543.395 756.904C542.756 758.045 541.326 758.448 540.185 757.81C539.044 757.171 538.64 755.741 539.279 754.6C539.918 753.459 541.348 753.055 542.489 753.694Z" stroke="url(#paint9_linear_1_4146)" stroke-width="1.0387" stroke-miterlimit="10"/>
<path d="M773.341 336.5C774.482 337.138 774.885 338.569 774.246 339.71C773.608 340.851 772.177 341.254 771.036 340.616C769.896 339.977 769.492 338.547 770.131 337.406C770.769 336.265 772.2 335.861 773.341 336.5Z" stroke="url(#paint10_linear_1_4146)" stroke-width="1.0387" stroke-miterlimit="10"/>
<path d="M603.362 258.152C604.503 258.791 604.907 260.221 604.268 261.362C603.629 262.503 602.199 262.907 601.058 262.268C599.917 261.629 599.513 260.199 600.152 259.058C600.791 257.917 602.221 257.514 603.362 258.152Z" stroke="url(#paint11_linear_1_4146)" stroke-width="1.0387" stroke-miterlimit="10"/>
</g>
<path style="mix-blend-mode:screen" d="M715.261 560.71C717.937 562.208 718.89 565.585 717.392 568.261C715.894 570.937 712.517 571.89 709.841 570.392C707.165 568.894 706.212 565.517 707.71 562.841C709.208 560.165 712.585 559.212 715.261 560.71Z" fill="url(#paint12_radial_1_4146)"/>
<path d="M269.362 537.152C270.503 537.791 270.907 539.221 270.268 540.362C269.629 541.503 268.199 541.907 267.058 541.268C265.917 540.629 265.513 539.199 266.152 538.058C266.791 536.917 268.221 536.513 269.362 537.152Z" stroke="url(#paint13_linear_1_4146)" stroke-width="1.0387" stroke-miterlimit="10"/>
<path style="mix-blend-mode:screen" d="M217.803 312.796C219.573 313.787 220.207 316.032 219.216 317.802C218.225 319.572 215.98 320.206 214.21 319.215C212.439 318.224 211.806 315.979 212.797 314.209C213.788 312.439 216.033 311.805 217.803 312.796Z" fill="url(#paint14_radial_1_4146)"/>
<g clip-path="url(#clip0_1_4146)">
<path d="M517.238 483.777H566.196C566.283 483.777 566.369 483.763 566.448 483.734L592.675 474.059C592.919 473.966 593.098 473.75 593.134 473.492L599.874 427.21C599.931 426.816 599.659 426.457 599.271 426.399C598.876 426.342 598.517 426.615 598.46 427.009L591.785 472.86L566.082 482.342H517.252C516.857 482.342 516.534 482.665 516.534 483.06C516.534 483.454 516.857 483.777 517.252 483.777H517.238Z" fill="#4C35BD"/>
<path d="M566.153 507.973C566.031 507.823 565.844 507.729 565.651 507.715L528.076 505.131C527.688 505.117 527.336 505.404 527.308 505.799C527.279 506.193 527.58 506.538 527.975 506.567L565.249 509.129L594.254 543.833C594.397 544.005 594.598 544.091 594.806 544.091C594.971 544.091 595.129 544.034 595.266 543.926C595.567 543.675 595.61 543.216 595.359 542.914L566.16 507.981L566.153 507.973Z" fill="#4C35BD"/>
<path d="M561.947 512.151C561.825 512.014 561.653 511.928 561.473 511.914L528.083 509.043C527.674 509 527.336 509.301 527.308 509.696C527.272 510.091 527.566 510.443 527.961 510.471L561.064 513.321L572.699 526.499L561.638 531.66C561 531.243 560.145 530.992 559.205 530.992C557.238 530.992 555.645 532.09 555.645 533.447C555.645 534.804 557.238 535.902 559.205 535.902C561.172 535.902 562.765 534.804 562.765 533.447C562.765 533.217 562.708 533.002 562.622 532.794L574.178 527.403C574.386 527.31 574.529 527.123 574.58 526.901C574.623 526.678 574.565 526.449 574.415 526.276L561.954 512.158L561.947 512.151Z" fill="#4C35BD"/>
<path d="M563.728 478.373C565.694 478.373 567.288 477.275 567.288 475.918C567.288 474.561 565.694 473.463 563.728 473.463C562.127 473.463 560.785 474.195 560.34 475.2L509.673 475.243C509.278 475.243 508.955 475.566 508.955 475.961C508.955 476.356 509.278 476.679 509.673 476.679L560.34 476.636C560.792 477.633 562.127 478.366 563.728 478.366V478.373Z" fill="#4C35BD"/>
<path d="M615.357 444.265C615.357 442.908 613.763 441.81 611.797 441.81C609.83 441.81 608.236 442.908 608.236 444.265C608.236 445.535 609.643 446.569 611.438 446.691L609.679 464.247L600.119 470.729L603.069 451.191C604.806 451.026 606.148 450.014 606.148 448.772C606.148 447.416 604.554 446.317 602.588 446.317C600.621 446.317 599.028 447.416 599.028 448.772C599.028 449.899 600.133 450.832 601.633 451.119L597.757 476.801L567.654 487.811H522.923C522.528 487.811 522.205 488.134 522.205 488.529C522.205 488.924 522.528 489.247 522.923 489.247H567.783C567.869 489.247 567.948 489.233 568.027 489.204L598.654 478.007C598.898 477.913 599.078 477.698 599.121 477.44L599.839 472.659L610.77 465.245C610.95 465.123 611.057 464.936 611.079 464.721L612.895 446.583C614.323 446.267 615.364 445.348 615.364 444.265H615.357Z" fill="#4C35BD"/>
<path d="M623.129 447.609C623.129 446.253 621.536 445.155 619.569 445.155C617.602 445.155 616.009 446.253 616.009 447.609C616.009 448.729 617.107 449.662 618.6 449.956L617.143 467.456C617.035 467.456 616.935 467.434 616.82 467.434C614.853 467.434 613.26 468.532 613.26 469.889C613.26 471.245 614.853 472.343 616.82 472.343C618.787 472.343 620.38 471.245 620.38 469.889C620.38 468.97 619.641 468.18 618.557 467.757L620.035 450.028C621.78 449.87 623.136 448.851 623.136 447.609H623.129Z" fill="#4C35BD"/>
<path d="M547.384 519.07C545.919 519.07 544.67 519.68 544.118 520.541L517.316 517.577C516.907 517.541 516.57 517.821 516.527 518.209C516.484 518.603 516.764 518.955 517.158 518.998L543.881 521.955C544.182 523.097 545.632 523.965 547.376 523.965C549.343 523.965 550.937 522.867 550.937 521.51C550.937 520.154 549.343 519.056 547.376 519.056L547.384 519.07Z" fill="#4C35BD"/>
<path d="M559.198 516.931C559.198 515.575 557.605 514.476 555.638 514.476C554.123 514.476 552.839 515.13 552.322 516.048L524.659 512.991C524.257 512.948 523.913 513.235 523.87 513.622C523.827 514.017 524.106 514.369 524.501 514.412L552.171 517.477C552.53 518.568 553.944 519.386 555.638 519.386C557.605 519.386 559.198 518.288 559.198 516.931Z" fill="#4C35BD"/>
<path d="M455.338 482.342H406.509L380.805 472.86L374.123 427.009C374.066 426.615 373.707 426.342 373.312 426.399C372.917 426.457 372.652 426.823 372.709 427.21L379.449 473.485C379.485 473.743 379.664 473.966 379.908 474.052L406.135 483.727C406.214 483.756 406.3 483.77 406.387 483.77H455.345C455.74 483.77 456.063 483.447 456.063 483.052C456.063 482.658 455.74 482.335 455.345 482.335L455.338 482.342Z" fill="#4C35BD"/>
<path d="M444.607 506.559C445.002 506.531 445.303 506.186 445.275 505.791C445.246 505.397 444.894 505.109 444.507 505.124L406.932 507.708C406.738 507.722 406.558 507.815 406.429 507.966L377.231 542.9C376.979 543.201 377.015 543.653 377.324 543.912C377.46 544.027 377.618 544.077 377.783 544.077C377.991 544.077 378.192 543.991 378.336 543.819L407.341 509.115L444.614 506.552L444.607 506.559Z" fill="#4C35BD"/>
<path d="M413.377 530.985C412.43 530.985 411.583 531.243 410.944 531.652L399.883 526.492L411.518 513.313L444.622 510.464C445.016 510.428 445.311 510.084 445.275 509.689C445.239 509.294 444.909 508.993 444.5 509.036L411.109 511.907C410.923 511.921 410.758 512.007 410.636 512.144L398.175 526.262C398.024 526.434 397.967 526.664 398.01 526.886C398.053 527.109 398.204 527.296 398.412 527.389L409.968 532.779C409.882 532.987 409.824 533.203 409.824 533.432C409.824 534.789 411.418 535.887 413.385 535.887C415.351 535.887 416.945 534.789 416.945 533.432C416.945 532.076 415.351 530.978 413.385 530.978L413.377 530.985Z" fill="#4C35BD"/>
<path d="M462.903 475.243L412.236 475.2C411.791 474.195 410.449 473.463 408.848 473.463C406.882 473.463 405.288 474.562 405.288 475.918C405.288 477.275 406.882 478.373 408.848 478.373C410.449 478.373 411.784 477.641 412.236 476.643L462.903 476.686C463.298 476.686 463.621 476.363 463.621 475.968C463.621 475.574 463.298 475.251 462.903 475.251V475.243Z" fill="#4C35BD"/>
<path d="M404.807 489.254H449.667C450.062 489.254 450.385 488.931 450.385 488.536C450.385 488.141 450.062 487.818 449.667 487.818H404.936L374.833 476.808L370.957 451.126C372.457 450.839 373.563 449.899 373.563 448.779C373.563 447.423 371.969 446.324 370.002 446.324C368.036 446.324 366.442 447.423 366.442 448.779C366.442 450.021 367.785 451.033 369.522 451.198L372.472 470.736L362.911 464.254L361.152 446.698C362.947 446.569 364.354 445.542 364.354 444.272C364.354 442.915 362.76 441.817 360.794 441.817C358.827 441.817 357.233 442.915 357.233 444.272C357.233 445.363 358.274 446.274 359.703 446.59L361.518 464.728C361.54 464.936 361.655 465.13 361.827 465.252L372.759 472.666L373.484 477.447C373.52 477.705 373.699 477.921 373.95 478.014L404.577 489.211C404.656 489.24 404.742 489.254 404.821 489.254H404.807Z" fill="#4C35BD"/>
<path d="M355.761 467.434C355.654 467.434 355.546 467.448 355.438 467.456L353.981 449.956C355.474 449.662 356.572 448.729 356.572 447.609C356.572 446.253 354.979 445.155 353.012 445.155C351.046 445.155 349.452 446.253 349.452 447.609C349.452 448.851 350.802 449.87 352.553 450.028L354.031 467.757C352.948 468.18 352.208 468.97 352.208 469.889C352.208 471.245 353.802 472.343 355.768 472.343C357.735 472.343 359.329 471.245 359.329 469.889C359.329 468.532 357.735 467.434 355.768 467.434H355.761Z" fill="#4C35BD"/>
<path d="M455.251 517.577L428.45 520.542C427.897 519.673 426.648 519.07 425.184 519.07C423.217 519.07 421.624 520.168 421.624 521.525C421.624 522.881 423.217 523.98 425.184 523.98C426.928 523.98 428.378 523.111 428.68 521.97L455.402 519.013C455.797 518.97 456.077 518.611 456.034 518.223C455.991 517.828 455.646 517.548 455.244 517.592L455.251 517.577Z" fill="#4C35BD"/>
<path d="M448.705 513.622C448.662 513.227 448.318 512.947 447.916 512.99L420.253 516.048C419.736 515.129 418.452 514.476 416.937 514.476C414.97 514.476 413.377 515.574 413.377 516.931C413.377 518.288 414.97 519.386 416.937 519.386C418.631 519.386 420.045 518.567 420.404 517.476L448.074 514.412C448.469 514.369 448.748 514.01 448.705 513.622Z" fill="#4C35BD"/>
</g>
<g clip-path="url(#clip1_1_4146)">
<path d="M554.325 499.216C554.34 498.025 553.399 496.833 551.497 495.922L491.018 467.017C487.243 465.216 481.127 465.216 477.352 467.017L416.873 495.922C414.971 496.833 414.031 498.025 414.045 499.216C414.045 499.238 414.045 499.252 414.045 499.274C414.045 499.295 414.045 499.31 414.045 499.331C414.045 499.353 414.045 499.367 414.045 499.389C414.045 499.41 414.045 499.424 414.045 499.446C414.045 499.468 414.045 499.482 414.045 499.503C414.045 499.525 414.045 499.539 414.045 499.561C414.045 499.582 414.045 499.597 414.045 499.618C414.045 499.64 414.045 499.654 414.045 499.676C414.045 499.697 414.045 499.712 414.045 499.733C414.045 499.755 414.045 499.769 414.045 499.791C414.045 499.812 414.045 499.826 414.045 499.848C414.045 499.869 414.045 499.884 414.045 499.905C414.045 499.927 414.045 499.941 414.045 499.963C414.045 499.984 414.045 499.999 414.045 500.02C414.045 500.042 414.045 500.056 414.045 500.078C414.045 500.099 414.045 500.114 414.045 500.135C414.045 500.157 414.045 500.171 414.045 500.192C414.045 500.214 414.045 500.228 414.045 500.25C414.045 500.271 414.045 500.286 414.045 500.307C414.045 500.329 414.045 500.343 414.045 500.365C414.045 500.386 414.045 500.401 414.045 500.422C414.045 500.444 414.045 500.458 414.045 500.48C414.045 500.501 414.045 500.515 414.045 500.537C414.045 500.559 414.045 500.573 414.045 500.594C414.045 500.616 414.045 500.63 414.045 500.652C414.045 500.673 414.045 500.688 414.045 500.709C414.045 500.731 414.045 500.745 414.045 500.767C414.045 500.788 414.045 500.803 414.045 500.824C414.045 500.846 414.045 500.86 414.045 500.882C414.045 500.903 414.045 500.917 414.045 500.939C414.045 500.96 414.045 500.975 414.045 500.996C414.045 501.018 414.045 501.032 414.045 501.054C414.045 501.075 414.045 501.09 414.045 501.111C414.045 501.133 414.045 501.147 414.045 501.169C414.045 501.19 414.045 501.204 414.045 501.226C414.045 501.248 414.045 501.262 414.045 501.283C414.045 501.305 414.045 501.319 414.045 501.341C414.045 501.362 414.045 501.377 414.045 501.398C414.045 501.42 414.045 501.434 414.045 501.456C414.045 501.477 414.045 501.492 414.045 501.513C414.045 501.535 414.045 501.549 414.045 501.571C414.045 501.592 414.045 501.606 414.045 501.628C414.045 501.65 414.045 501.664 414.045 501.685C414.045 501.707 414.045 501.721 414.045 501.743C414.045 501.764 414.045 501.779 414.045 501.8C414.045 501.822 414.045 501.836 414.045 501.858C414.045 501.879 414.045 501.894 414.045 501.915C414.045 501.937 414.045 501.951 414.045 501.973C414.045 501.994 414.045 502.008 414.045 502.03C414.045 502.051 414.045 502.066 414.045 502.087C414.045 502.109 414.045 502.123 414.045 502.145C414.045 502.166 414.045 502.181 414.045 502.202C414.045 502.224 414.045 502.238 414.045 502.26C414.045 502.281 414.045 502.296 414.045 502.317C414.045 502.339 414.045 502.353 414.045 502.374C414.045 502.396 414.045 502.41 414.045 502.432C414.045 502.453 414.045 502.468 414.045 502.489C414.045 502.511 414.045 502.525 414.045 502.547C414.045 502.568 414.045 502.583 414.045 502.604C414.045 502.626 414.045 502.64 414.045 502.662C414.045 502.683 414.045 502.697 414.045 502.719C414.045 502.741 414.045 502.755 414.045 502.776C414.045 502.798 414.045 502.812 414.045 502.834C414.045 502.855 414.045 502.87 414.045 502.891C414.045 502.913 414.045 502.927 414.045 502.949C414.045 502.97 414.045 502.985 414.045 503.006C414.045 503.028 414.045 503.042 414.045 503.064C414.045 503.085 414.045 503.099 414.045 503.121C414.045 503.142 414.045 503.157 414.045 503.178C414.045 503.2 414.045 503.214 414.045 503.236C414.045 503.257 414.045 503.272 414.045 503.293C414.045 503.315 414.045 503.329 414.045 503.351C414.045 503.372 414.045 503.387 414.045 503.408C414.045 503.43 414.045 503.444 414.045 503.465C414.045 503.487 414.045 503.501 414.045 503.523C414.045 503.544 414.045 503.559 414.045 503.58C414.045 503.602 414.045 503.616 414.045 503.638C414.045 503.659 414.045 503.674 414.045 503.695C414.045 503.717 414.045 503.731 414.045 503.753C414.045 503.774 414.045 503.788 414.045 503.81C414.045 503.832 414.045 503.846 414.045 503.867C414.045 503.889 414.045 503.903 414.045 503.925C414.045 503.946 414.045 503.961 414.045 503.982C414.045 504.004 414.045 504.018 414.045 504.04C414.045 504.061 414.045 504.076 414.045 504.097C414.045 504.119 414.045 504.133 414.045 504.155C414.045 504.176 414.045 504.19 414.045 504.212C414.045 504.233 414.045 504.248 414.045 504.269C414.045 504.291 414.045 504.305 414.045 504.327C414.045 504.348 414.045 504.363 414.045 504.384C414.045 504.406 414.045 504.42 414.045 504.442C414.045 504.463 414.045 504.478 414.045 504.499C414.045 504.521 414.045 504.535 414.045 504.556C414.045 504.578 414.045 504.592 414.045 504.614C414.045 504.635 414.045 504.65 414.045 504.671C414.045 504.693 414.045 504.707 414.045 504.729C414.045 504.75 414.045 504.765 414.045 504.786C414.045 504.808 414.045 504.822 414.045 504.844C414.045 504.865 414.045 504.879 414.045 504.901C414.045 504.923 414.045 504.937 414.045 504.958C414.031 506.15 414.971 507.341 416.873 508.253L477.352 537.157C481.127 538.959 487.243 538.959 491.018 537.157L551.497 508.253C553.399 507.341 554.34 506.15 554.325 504.958C554.325 504.937 554.325 504.923 554.325 504.901C554.325 504.879 554.325 504.865 554.325 504.844C554.325 504.822 554.325 504.808 554.325 504.786C554.325 504.765 554.325 504.75 554.325 504.729C554.325 504.707 554.325 504.693 554.325 504.671C554.325 504.65 554.325 504.635 554.325 504.614C554.325 504.592 554.325 504.578 554.325 504.556C554.325 504.535 554.325 504.521 554.325 504.499C554.325 504.478 554.325 504.463 554.325 504.442C554.325 504.42 554.325 504.406 554.325 504.384C554.325 504.363 554.325 504.348 554.325 504.327C554.325 504.305 554.325 504.291 554.325 504.269C554.325 504.248 554.325 504.233 554.325 504.212C554.325 504.19 554.325 504.176 554.325 504.155C554.325 504.133 554.325 504.119 554.325 504.097C554.325 504.076 554.325 504.061 554.325 504.04C554.325 504.018 554.325 504.004 554.325 503.982C554.325 503.961 554.325 503.946 554.325 503.925C554.325 503.903 554.325 503.889 554.325 503.867C554.325 503.846 554.325 503.832 554.325 503.81C554.325 503.788 554.325 503.774 554.325 503.753C554.325 503.731 554.325 503.717 554.325 503.695C554.325 503.674 554.325 503.659 554.325 503.638C554.325 503.616 554.325 503.602 554.325 503.58C554.325 503.559 554.325 503.544 554.325 503.523C554.325 503.501 554.325 503.487 554.325 503.465C554.325 503.444 554.325 503.43 554.325 503.408C554.325 503.387 554.325 503.372 554.325 503.351C554.325 503.329 554.325 503.315 554.325 503.293C554.325 503.272 554.325 503.257 554.325 503.236C554.325 503.214 554.325 503.2 554.325 503.178C554.325 503.157 554.325 503.142 554.325 503.121C554.325 503.099 554.325 503.085 554.325 503.064C554.325 503.042 554.325 503.028 554.325 503.006C554.325 502.985 554.325 502.97 554.325 502.949C554.325 502.927 554.325 502.913 554.325 502.891C554.325 502.87 554.325 502.855 554.325 502.834C554.325 502.812 554.325 502.798 554.325 502.776C554.325 502.755 554.325 502.741 554.325 502.719C554.325 502.697 554.325 502.683 554.325 502.662C554.325 502.64 554.325 502.626 554.325 502.604C554.325 502.583 554.325 502.568 554.325 502.547C554.325 502.525 554.325 502.511 554.325 502.489C554.325 502.468 554.325 502.453 554.325 502.432C554.325 502.41 554.325 502.396 554.325 502.374C554.325 502.353 554.325 502.339 554.325 502.317C554.325 502.296 554.325 502.281 554.325 502.26C554.325 502.238 554.325 502.224 554.325 502.202C554.325 502.181 554.325 502.166 554.325 502.145C554.325 502.123 554.325 502.109 554.325 502.087C554.325 502.066 554.325 502.051 554.325 502.03C554.325 502.008 554.325 501.994 554.325 501.973C554.325 501.951 554.325 501.937 554.325 501.915C554.325 501.894 554.325 501.879 554.325 501.858C554.325 501.836 554.325 501.822 554.325 501.8C554.325 501.779 554.325 501.764 554.325 501.743C554.325 501.721 554.325 501.707 554.325 501.685C554.325 501.664 554.325 501.65 554.325 501.628C554.325 501.606 554.325 501.592 554.325 501.571C554.325 501.549 554.325 501.535 554.325 501.513C554.325 501.492 554.325 501.477 554.325 501.456C554.325 501.434 554.325 501.42 554.325 501.398C554.325 501.377 554.325 501.362 554.325 501.341C554.325 501.319 554.325 501.305 554.325 501.283C554.325 501.262 554.325 501.248 554.325 501.226C554.325 501.204 554.325 501.19 554.325 501.169C554.325 501.147 554.325 501.133 554.325 501.111C554.325 501.09 554.325 501.075 554.325 501.054C554.325 501.032 554.325 501.018 554.325 500.996C554.325 500.975 554.325 500.96 554.325 500.939C554.325 500.917 554.325 500.903 554.325 500.882C554.325 500.86 554.325 500.846 554.325 500.824C554.325 500.803 554.325 500.788 554.325 500.767C554.325 500.745 554.325 500.731 554.325 500.709C554.325 500.688 554.325 500.673 554.325 500.652C554.325 500.63 554.325 500.616 554.325 500.594C554.325 500.573 554.325 500.559 554.325 500.537C554.325 500.515 554.325 500.501 554.325 500.48C554.325 500.458 554.325 500.444 554.325 500.422C554.325 500.401 554.325 500.386 554.325 500.365C554.325 500.343 554.325 500.329 554.325 500.307C554.325 500.286 554.325 500.271 554.325 500.25C554.325 500.228 554.325 500.214 554.325 500.192C554.325 500.171 554.325 500.157 554.325 500.135C554.325 500.114 554.325 500.099 554.325 500.078C554.325 500.056 554.325 500.042 554.325 500.02C554.325 499.999 554.325 499.984 554.325 499.963C554.325 499.941 554.325 499.927 554.325 499.905C554.325 499.884 554.325 499.869 554.325 499.848C554.325 499.826 554.325 499.812 554.325 499.791C554.325 499.769 554.325 499.755 554.325 499.733C554.325 499.712 554.325 499.697 554.325 499.676C554.325 499.654 554.325 499.64 554.325 499.618C554.325 499.597 554.325 499.582 554.325 499.561C554.325 499.539 554.325 499.525 554.325 499.503C554.325 499.482 554.325 499.468 554.325 499.446C554.325 499.424 554.325 499.41 554.325 499.389C554.325 499.367 554.325 499.353 554.325 499.331C554.325 499.31 554.325 499.295 554.325 499.274C554.325 499.252 554.325 499.238 554.325 499.216Z" fill="#5164B8"/>
<path d="M551.497 495.922L491.018 467.017C487.242 465.216 481.127 465.216 477.352 467.017L416.873 495.922C413.097 497.723 413.097 500.652 416.873 502.453L477.352 531.358C481.127 533.159 487.242 533.159 491.018 531.358L551.497 502.453C555.272 500.652 555.272 497.723 551.497 495.922Z" fill="#70B4FC"/>
<path d="M535.749 488.392L491.018 467.017C487.242 465.216 481.127 465.216 477.352 467.017L416.873 495.922C413.097 497.723 413.097 500.652 416.873 502.453L432.305 509.832C441.083 511.368 450.565 512.208 460.455 512.208C494.276 512.208 523.303 502.389 535.742 488.392H535.749Z" fill="#94DFFF"/>
<path d="M484.185 485.938C514.502 485.938 539.079 461.36 539.079 431.043C539.079 400.725 514.502 376.148 484.185 376.148C453.867 376.148 429.29 400.725 429.29 431.043C429.29 461.36 453.867 485.938 484.185 485.938Z" fill="#9180B7"/>
<path d="M484.185 491.069C514.502 491.069 539.079 466.492 539.079 436.175C539.079 405.857 514.502 381.28 484.185 381.28C453.867 381.28 429.29 405.857 429.29 436.175C429.29 466.492 453.867 491.069 484.185 491.069Z" fill="#E8E1EB"/>
<path d="M484.185 381.28C453.866 381.28 429.29 405.856 429.29 436.175C429.29 466.493 453.866 491.069 484.185 491.069C514.503 491.069 539.079 466.493 539.079 436.175C539.079 405.856 514.503 381.28 484.185 381.28ZM484.185 483.461C458.072 483.461 436.898 462.294 436.898 436.175C436.898 410.055 458.072 388.896 484.185 388.896C510.297 388.896 531.471 410.062 531.471 436.182C531.471 462.301 510.304 483.468 484.185 483.468V483.461Z" fill="url(#paint15_linear_1_4146)"/>
<path d="M483.703 396.138L458.596 431.186C458.388 431.473 458.481 431.882 458.79 432.055L483.897 445.922C484.077 446.022 484.292 446.022 484.471 445.922L509.579 432.055C509.888 431.882 509.981 431.48 509.773 431.186L484.672 396.138C484.436 395.807 483.94 395.807 483.703 396.138Z" fill="url(#paint16_linear_1_4146)" style="mix-blend-mode:multiply"/>
<path d="M484.486 450.616L508.064 436.842C508.603 436.526 509.199 437.144 508.868 437.675L484.687 476.09C484.457 476.463 483.912 476.463 483.682 476.09L459.493 437.675C459.163 437.151 459.759 436.534 460.297 436.842L483.883 450.616C484.07 450.724 484.299 450.724 484.479 450.616H484.486Z" fill="url(#paint17_linear_1_4146)" style="mix-blend-mode:multiply"/>
<path d="M484.471 445.915L509.579 432.048C509.887 431.875 509.981 431.473 509.773 431.179L484.672 396.138C484.557 395.973 484.371 395.886 484.191 395.886V445.987C484.292 445.987 484.392 445.965 484.479 445.915H484.471Z" fill="url(#paint18_linear_1_4146)" style="mix-blend-mode:multiply"/>
<path d="M484.406 450.652V476.319C484.521 476.276 484.622 476.204 484.693 476.09L508.875 437.675C509.205 437.151 508.609 436.534 508.071 436.842L484.492 450.616C484.492 450.616 484.435 450.638 484.406 450.652Z" fill="url(#paint19_linear_1_4146)" style="mix-blend-mode:multiply"/>
<path d="M484.572 450.566L484.486 450.616C484.299 450.724 484.069 450.724 483.89 450.616L483.768 450.544C483.588 457.528 483.452 466.759 483.603 475.953L483.689 476.09C483.919 476.463 484.464 476.463 484.694 476.09L484.794 475.932C484.88 469.565 484.859 461.167 484.579 450.566H484.572Z" fill="#FFF48F"/>
<path d="M484.249 395.894C484.191 395.894 484.141 395.894 484.084 395.894C483.796 403.007 482.957 427.54 484.155 445.979C484.191 445.979 484.234 445.979 484.27 445.972C484.521 442.333 485.404 426.542 484.249 395.886V395.894Z" fill="#FFF48F"/>
<g style="mix-blend-mode:overlay" opacity="0.33">
<path d="M468.609 437.474L475.019 441.013L498.756 415.797L494.542 409.919L468.609 437.474Z" fill="white"/>
<path d="M509.773 431.186L509.235 430.44L505.703 434.194L509.572 432.055C509.881 431.883 509.974 431.481 509.766 431.186H509.773Z" fill="#FFD559"/>
<path d="M503.601 422.566L501.002 418.941L478.45 442.908L482.405 445.09L503.601 422.566Z" fill="white"/>
</g>
<g style="mix-blend-mode:overlay" opacity="0.33">
<path d="M463.076 443.352L466.981 449.554L472.335 443.869L466.048 440.201L463.076 443.352Z" fill="white"/>
<path d="M502.224 448.247L508.877 437.675C509.207 437.151 508.612 436.534 508.073 436.842L497.271 443.151L476.707 465L480.612 471.202L502.216 448.24L502.224 448.247Z" fill="white"/>
<path d="M479.57 448.097L475.694 445.836L469.069 452.87L471.481 456.696L479.57 448.097Z" fill="white"/>
</g>
</g>
<path d="M406.646 425.659C406.646 425.1 406.208 424.54 405.318 424.109L376.894 410.522C375.121 409.675 372.243 409.675 370.47 410.522L342.047 424.109C341.149 424.54 340.712 425.1 340.719 425.659C340.719 425.667 340.719 425.674 340.719 425.688C340.719 425.695 340.719 425.702 340.719 425.717C340.719 425.724 340.719 425.731 340.719 425.746C340.719 425.753 340.719 425.76 340.719 425.774C340.719 425.781 340.719 425.789 340.719 425.803C340.719 425.81 340.719 425.817 340.719 425.832C340.719 425.839 340.719 425.846 340.719 425.86C340.719 425.868 340.719 425.875 340.719 425.889C340.719 425.896 340.719 425.903 340.719 425.918C340.719 425.925 340.719 425.932 340.719 425.946C340.719 425.954 340.719 425.961 340.719 425.975C340.719 425.982 340.719 425.99 340.719 426.004C340.719 426.011 340.719 426.018 340.719 426.033C340.719 426.04 340.719 426.047 340.719 426.061C340.719 426.069 340.719 426.076 340.719 426.09C340.719 426.097 340.719 426.104 340.719 426.119C340.719 426.126 340.719 426.133 340.719 426.147C340.719 426.155 340.719 426.162 340.719 426.176C340.719 426.183 340.719 426.191 340.719 426.205C340.719 426.212 340.719 426.219 340.719 426.234C340.719 426.241 340.719 426.248 340.719 426.262C340.719 426.269 340.719 426.277 340.719 426.291C340.719 426.298 340.719 426.305 340.719 426.32C340.719 426.327 340.719 426.334 340.719 426.348C340.719 426.356 340.719 426.363 340.719 426.377C340.719 426.384 340.719 426.391 340.719 426.406C340.719 426.413 340.719 426.42 340.719 426.435C340.719 426.442 340.719 426.449 340.719 426.463C340.719 426.47 340.719 426.478 340.719 426.492C340.719 426.499 340.719 426.506 340.719 426.521C340.719 426.528 340.719 426.535 340.719 426.549C340.719 426.557 340.719 426.564 340.719 426.578C340.719 426.585 340.719 426.592 340.719 426.607C340.719 426.614 340.719 426.621 340.719 426.636C340.719 426.643 340.719 426.65 340.719 426.664C340.719 426.671 340.719 426.679 340.719 426.693C340.719 426.7 340.719 426.707 340.719 426.722C340.719 426.729 340.719 426.736 340.719 426.75C340.719 426.758 340.719 426.765 340.719 426.779C340.719 426.786 340.719 426.793 340.719 426.808C340.719 426.815 340.719 426.822 340.719 426.837C340.719 426.844 340.719 426.851 340.719 426.865C340.719 426.872 340.719 426.88 340.719 426.894C340.719 426.901 340.719 426.908 340.719 426.923C340.719 426.93 340.719 426.937 340.719 426.951C340.719 426.959 340.719 426.966 340.719 426.98C340.719 426.987 340.719 426.994 340.719 427.009C340.719 427.016 340.719 427.023 340.719 427.037C340.719 427.045 340.719 427.052 340.719 427.066C340.719 427.073 340.719 427.081 340.719 427.095C340.719 427.102 340.719 427.109 340.719 427.124C340.719 427.131 340.719 427.138 340.719 427.152C340.719 427.16 340.719 427.167 340.719 427.181C340.719 427.188 340.719 427.195 340.719 427.21C340.719 427.217 340.719 427.224 340.719 427.238C340.719 427.246 340.719 427.253 340.719 427.267C340.719 427.274 340.719 427.282 340.719 427.296C340.719 427.303 340.719 427.31 340.719 427.325C340.719 427.332 340.719 427.339 340.719 427.353C340.719 427.36 340.719 427.368 340.719 427.382C340.719 427.389 340.719 427.396 340.719 427.411C340.719 427.418 340.719 427.425 340.719 427.439C340.719 427.447 340.719 427.454 340.719 427.468C340.719 427.475 340.719 427.482 340.719 427.497C340.719 427.504 340.719 427.511 340.719 427.526C340.719 427.533 340.719 427.54 340.719 427.554C340.719 427.561 340.719 427.569 340.719 427.583C340.719 427.59 340.719 427.597 340.719 427.612C340.719 427.619 340.719 427.626 340.719 427.64C340.719 427.648 340.719 427.655 340.719 427.669C340.719 427.676 340.719 427.683 340.719 427.698C340.719 427.705 340.719 427.712 340.719 427.727C340.719 427.734 340.719 427.741 340.719 427.755C340.719 427.762 340.719 427.77 340.719 427.784C340.719 427.791 340.719 427.798 340.719 427.813C340.719 427.82 340.719 427.827 340.719 427.841C340.719 427.849 340.719 427.856 340.719 427.87C340.719 427.877 340.719 427.884 340.719 427.899C340.719 427.906 340.719 427.913 340.719 427.928C340.719 427.935 340.719 427.942 340.719 427.956C340.719 427.963 340.719 427.971 340.719 427.985C340.719 427.992 340.719 427.999 340.719 428.014C340.719 428.021 340.719 428.028 340.719 428.042C340.719 428.05 340.719 428.057 340.719 428.071C340.719 428.078 340.719 428.085 340.719 428.1C340.719 428.107 340.719 428.114 340.719 428.128C340.719 428.136 340.719 428.143 340.719 428.157C340.719 428.164 340.719 428.172 340.719 428.186C340.719 428.193 340.719 428.2 340.719 428.215C340.719 428.222 340.719 428.229 340.719 428.243C340.719 428.251 340.719 428.258 340.719 428.272C340.719 428.279 340.719 428.286 340.719 428.301C340.719 428.308 340.719 428.315 340.719 428.329C340.719 428.337 340.719 428.344 340.719 428.358C340.719 428.365 340.719 428.373 340.719 428.387C340.719 428.394 340.719 428.401 340.719 428.416C340.719 428.423 340.719 428.43 340.719 428.444C340.719 428.451 340.719 428.459 340.719 428.473C340.719 428.48 340.719 428.487 340.719 428.502C340.719 428.509 340.719 428.516 340.719 428.53C340.719 429.09 341.157 429.65 342.047 430.081L370.47 443.668C372.243 444.515 375.121 444.515 376.894 443.668L405.318 430.081C406.215 429.65 406.653 429.09 406.646 428.53C406.646 428.523 406.646 428.516 406.646 428.502C406.646 428.495 406.646 428.487 406.646 428.473C406.646 428.466 406.646 428.459 406.646 428.444C406.646 428.437 406.646 428.43 406.646 428.416C406.646 428.408 406.646 428.401 406.646 428.387C406.646 428.38 406.646 428.373 406.646 428.358C406.646 428.351 406.646 428.344 406.646 428.329C406.646 428.322 406.646 428.315 406.646 428.301C406.646 428.294 406.646 428.286 406.646 428.272C406.646 428.265 406.646 428.258 406.646 428.243C406.646 428.236 406.646 428.229 406.646 428.215C406.646 428.207 406.646 428.2 406.646 428.186C406.646 428.179 406.646 428.172 406.646 428.157C406.646 428.15 406.646 428.143 406.646 428.128C406.646 428.121 406.646 428.114 406.646 428.1C406.646 428.093 406.646 428.085 406.646 428.071C406.646 428.064 406.646 428.057 406.646 428.042C406.646 428.035 406.646 428.028 406.646 428.014C406.646 428.006 406.646 427.999 406.646 427.985C406.646 427.978 406.646 427.971 406.646 427.956C406.646 427.949 406.646 427.942 406.646 427.928C406.646 427.92 406.646 427.913 406.646 427.899C406.646 427.892 406.646 427.884 406.646 427.87C406.646 427.863 406.646 427.856 406.646 427.841C406.646 427.834 406.646 427.827 406.646 427.813C406.646 427.805 406.646 427.798 406.646 427.784C406.646 427.777 406.646 427.77 406.646 427.755C406.646 427.748 406.646 427.741 406.646 427.727C406.646 427.719 406.646 427.712 406.646 427.698C406.646 427.691 406.646 427.683 406.646 427.669C406.646 427.662 406.646 427.655 406.646 427.64C406.646 427.633 406.646 427.626 406.646 427.612C406.646 427.605 406.646 427.597 406.646 427.583C406.646 427.576 406.646 427.569 406.646 427.554C406.646 427.547 406.646 427.54 406.646 427.526C406.646 427.518 406.646 427.511 406.646 427.497C406.646 427.49 406.646 427.482 406.646 427.468C406.646 427.461 406.646 427.454 406.646 427.439C406.646 427.432 406.646 427.425 406.646 427.411C406.646 427.404 406.646 427.396 406.646 427.382C406.646 427.375 406.646 427.368 406.646 427.353C406.646 427.346 406.646 427.339 406.646 427.325C406.646 427.317 406.646 427.31 406.646 427.296C406.646 427.289 406.646 427.282 406.646 427.267C406.646 427.26 406.646 427.253 406.646 427.238C406.646 427.231 406.646 427.224 406.646 427.21C406.646 427.203 406.646 427.195 406.646 427.181C406.646 427.174 406.646 427.167 406.646 427.152C406.646 427.145 406.646 427.138 406.646 427.124C406.646 427.116 406.646 427.109 406.646 427.095C406.646 427.088 406.646 427.081 406.646 427.066C406.646 427.059 406.646 427.052 406.646 427.037C406.646 427.03 406.646 427.023 406.646 427.009C406.646 427.002 406.646 426.994 406.646 426.98C406.646 426.973 406.646 426.966 406.646 426.951C406.646 426.944 406.646 426.937 406.646 426.923C406.646 426.915 406.646 426.908 406.646 426.894C406.646 426.887 406.646 426.88 406.646 426.865C406.646 426.858 406.646 426.851 406.646 426.837C406.646 426.829 406.646 426.822 406.646 426.808C406.646 426.801 406.646 426.793 406.646 426.779C406.646 426.772 406.646 426.765 406.646 426.75C406.646 426.743 406.646 426.736 406.646 426.722C406.646 426.714 406.646 426.707 406.646 426.693C406.646 426.686 406.646 426.679 406.646 426.664C406.646 426.657 406.646 426.65 406.646 426.636C406.646 426.628 406.646 426.621 406.646 426.607C406.646 426.6 406.646 426.592 406.646 426.578C406.646 426.571 406.646 426.564 406.646 426.549C406.646 426.542 406.646 426.535 406.646 426.521C406.646 426.514 406.646 426.506 406.646 426.492C406.646 426.485 406.646 426.478 406.646 426.463C406.646 426.456 406.646 426.449 406.646 426.435C406.646 426.427 406.646 426.42 406.646 426.406C406.646 426.399 406.646 426.391 406.646 426.377C406.646 426.37 406.646 426.363 406.646 426.348C406.646 426.341 406.646 426.334 406.646 426.32C406.646 426.313 406.646 426.305 406.646 426.291C406.646 426.284 406.646 426.277 406.646 426.262C406.646 426.255 406.646 426.248 406.646 426.234C406.646 426.226 406.646 426.219 406.646 426.205C406.646 426.198 406.646 426.191 406.646 426.176C406.646 426.169 406.646 426.162 406.646 426.147C406.646 426.14 406.646 426.133 406.646 426.119C406.646 426.112 406.646 426.104 406.646 426.09C406.646 426.083 406.646 426.076 406.646 426.061C406.646 426.054 406.646 426.047 406.646 426.033C406.646 426.025 406.646 426.018 406.646 426.004C406.646 425.997 406.646 425.99 406.646 425.975C406.646 425.968 406.646 425.961 406.646 425.946C406.646 425.939 406.646 425.932 406.646 425.918C406.646 425.911 406.646 425.903 406.646 425.889C406.646 425.882 406.646 425.875 406.646 425.86C406.646 425.853 406.646 425.846 406.646 425.832C406.646 425.824 406.646 425.817 406.646 425.803C406.646 425.796 406.646 425.789 406.646 425.774C406.646 425.767 406.646 425.76 406.646 425.746C406.646 425.738 406.646 425.731 406.646 425.717C406.646 425.71 406.646 425.702 406.646 425.688C406.646 425.681 406.646 425.674 406.646 425.659Z" fill="#5164B8"/>
<path d="M405.319 424.109L376.896 410.522C375.123 409.675 372.245 409.675 370.472 410.522L342.048 424.109C340.276 424.956 340.276 426.334 342.048 427.181L370.472 440.768C372.245 441.615 375.123 441.615 376.896 440.768L405.319 427.181C407.092 426.334 407.092 424.956 405.319 424.109Z" fill="#70B4FC"/>
<path d="M397.919 420.57L376.896 410.522C375.123 409.675 372.245 409.675 370.472 410.522L342.048 424.109C340.276 424.956 340.276 426.334 342.048 427.181L349.305 430.648C353.432 431.373 357.889 431.768 362.533 431.768C378.432 431.768 392.069 427.152 397.919 420.578V420.57Z" fill="#94DFFF"/>
<path d="M373.68 417.319C392.216 417.319 407.243 403.443 407.243 386.326C407.243 369.209 392.216 355.333 373.68 355.333C355.144 355.333 340.117 369.209 340.117 386.326C340.117 403.443 355.144 417.319 373.68 417.319Z" fill="#9180B7"/>
<path d="M373.68 420.449C392.216 420.449 407.243 406.572 407.243 389.455C407.243 372.338 392.216 358.462 373.68 358.462C355.144 358.462 340.117 372.338 340.117 389.455C340.117 406.572 355.144 420.449 373.68 420.449Z" fill="#FBF9FC"/>
<path d="M393.654 387.891C393.654 379.378 384.711 372.48 373.679 372.48C362.646 372.48 353.703 379.378 353.703 387.891C353.703 396.403 362.402 403.093 373.226 403.28C372.178 405.296 370.592 408.412 370.764 408.368C370.922 408.325 375.085 405.153 377.978 402.935C386.943 401.421 393.654 395.262 393.654 387.898V387.891Z" fill="url(#paint20_linear_1_4146)" style="mix-blend-mode:multiply"/>
<path d="M367.78 387.891C367.78 389.75 366.272 391.257 364.413 391.257C362.554 391.257 361.047 389.75 361.047 387.891C361.047 386.032 362.554 384.524 364.413 384.524C366.272 384.524 367.78 386.032 367.78 387.891Z" fill="white"/>
<path d="M377.045 387.891C377.045 389.75 375.538 391.257 373.679 391.257C371.82 391.257 370.312 389.75 370.312 387.891C370.312 386.032 371.82 384.524 373.679 384.524C375.538 384.524 377.045 386.032 377.045 387.891Z" fill="white"/>
<path d="M386.313 387.891C386.313 389.75 384.805 391.257 382.946 391.257C381.087 391.257 379.58 389.75 379.58 387.891C379.58 386.032 381.087 384.524 382.946 384.524C384.805 384.524 386.313 386.032 386.313 387.891Z" fill="white"/>
<path d="M632.841 425.66C632.841 425.1 632.403 424.54 631.513 424.109L603.09 410.522C601.317 409.675 598.438 409.675 596.666 410.522L568.242 424.109C567.345 424.54 566.907 425.1 566.914 425.66C566.914 425.667 566.914 425.674 566.914 425.688C566.914 425.696 566.914 425.703 566.914 425.717C566.914 425.724 566.914 425.731 566.914 425.746C566.914 425.753 566.914 425.76 566.914 425.774C566.914 425.782 566.914 425.789 566.914 425.803C566.914 425.81 566.914 425.818 566.914 425.832C566.914 425.839 566.914 425.846 566.914 425.861C566.914 425.868 566.914 425.875 566.914 425.889C566.914 425.896 566.914 425.904 566.914 425.918C566.914 425.925 566.914 425.932 566.914 425.947C566.914 425.954 566.914 425.961 566.914 425.975C566.914 425.983 566.914 425.99 566.914 426.004C566.914 426.011 566.914 426.019 566.914 426.033C566.914 426.04 566.914 426.047 566.914 426.062C566.914 426.069 566.914 426.076 566.914 426.09C566.914 426.097 566.914 426.105 566.914 426.119C566.914 426.126 566.914 426.133 566.914 426.148C566.914 426.155 566.914 426.162 566.914 426.176C566.914 426.184 566.914 426.191 566.914 426.205C566.914 426.212 566.914 426.219 566.914 426.234C566.914 426.241 566.914 426.248 566.914 426.263C566.914 426.27 566.914 426.277 566.914 426.291C566.914 426.298 566.914 426.306 566.914 426.32C566.914 426.327 566.914 426.334 566.914 426.349C566.914 426.356 566.914 426.363 566.914 426.377C566.914 426.385 566.914 426.392 566.914 426.406C566.914 426.413 566.914 426.42 566.914 426.435C566.914 426.442 566.914 426.449 566.914 426.464C566.914 426.471 566.914 426.478 566.914 426.492C566.914 426.499 566.914 426.507 566.914 426.521C566.914 426.528 566.914 426.535 566.914 426.55C566.914 426.557 566.914 426.564 566.914 426.578C566.914 426.586 566.914 426.593 566.914 426.607C566.914 426.614 566.914 426.621 566.914 426.636C566.914 426.643 566.914 426.65 566.914 426.664C566.914 426.672 566.914 426.679 566.914 426.693C566.914 426.7 566.914 426.708 566.914 426.722C566.914 426.729 566.914 426.736 566.914 426.751C566.914 426.758 566.914 426.765 566.914 426.779C566.914 426.787 566.914 426.794 566.914 426.808C566.914 426.815 566.914 426.822 566.914 426.837C566.914 426.844 566.914 426.851 566.914 426.865C566.914 426.873 566.914 426.88 566.914 426.894C566.914 426.901 566.914 426.909 566.914 426.923C566.914 426.93 566.914 426.937 566.914 426.952C566.914 426.959 566.914 426.966 566.914 426.98C566.914 426.987 566.914 426.995 566.914 427.009C566.914 427.016 566.914 427.023 566.914 427.038C566.914 427.045 566.914 427.052 566.914 427.066C566.914 427.074 566.914 427.081 566.914 427.095C566.914 427.102 566.914 427.11 566.914 427.124C566.914 427.131 566.914 427.138 566.914 427.153C566.914 427.16 566.914 427.167 566.914 427.181C566.914 427.188 566.914 427.196 566.914 427.21C566.914 427.217 566.914 427.224 566.914 427.239C566.914 427.246 566.914 427.253 566.914 427.267C566.914 427.275 566.914 427.282 566.914 427.296C566.914 427.303 566.914 427.31 566.914 427.325C566.914 427.332 566.914 427.339 566.914 427.354C566.914 427.361 566.914 427.368 566.914 427.382C566.914 427.389 566.914 427.397 566.914 427.411C566.914 427.418 566.914 427.425 566.914 427.44C566.914 427.447 566.914 427.454 566.914 427.468C566.914 427.476 566.914 427.483 566.914 427.497C566.914 427.504 566.914 427.511 566.914 427.526C566.914 427.533 566.914 427.54 566.914 427.555C566.914 427.562 566.914 427.569 566.914 427.583C566.914 427.59 566.914 427.598 566.914 427.612C566.914 427.619 566.914 427.626 566.914 427.641C566.914 427.648 566.914 427.655 566.914 427.669C566.914 427.677 566.914 427.684 566.914 427.698C566.914 427.705 566.914 427.712 566.914 427.727C566.914 427.734 566.914 427.741 566.914 427.755C566.914 427.763 566.914 427.77 566.914 427.784C566.914 427.791 566.914 427.799 566.914 427.813C566.914 427.82 566.914 427.827 566.914 427.842C566.914 427.849 566.914 427.856 566.914 427.87C566.914 427.878 566.914 427.885 566.914 427.899C566.914 427.906 566.914 427.913 566.914 427.928C566.914 427.935 566.914 427.942 566.914 427.956C566.914 427.964 566.914 427.971 566.914 427.985C566.914 427.992 566.914 428 566.914 428.014C566.914 428.021 566.914 428.028 566.914 428.043C566.914 428.05 566.914 428.057 566.914 428.071C566.914 428.078 566.914 428.086 566.914 428.1C566.914 428.107 566.914 428.114 566.914 428.129C566.914 428.136 566.914 428.143 566.914 428.157C566.914 428.165 566.914 428.172 566.914 428.186C566.914 428.193 566.914 428.201 566.914 428.215C566.914 428.222 566.914 428.229 566.914 428.244C566.914 428.251 566.914 428.258 566.914 428.272C566.914 428.279 566.914 428.287 566.914 428.301C566.914 428.308 566.914 428.315 566.914 428.33C566.914 428.337 566.914 428.344 566.914 428.358C566.914 428.366 566.914 428.373 566.914 428.387C566.914 428.394 566.914 428.401 566.914 428.416C566.914 428.423 566.914 428.43 566.914 428.445C566.914 428.452 566.914 428.459 566.914 428.473C566.914 428.48 566.914 428.488 566.914 428.502C566.914 428.509 566.914 428.516 566.914 428.531C566.914 429.091 567.352 429.65 568.242 430.081L596.666 443.668C598.438 444.515 601.317 444.515 603.09 443.668L631.513 430.081C632.41 429.65 632.848 429.091 632.841 428.531C632.841 428.524 632.841 428.516 632.841 428.502C632.841 428.495 632.841 428.488 632.841 428.473C632.841 428.466 632.841 428.459 632.841 428.445C632.841 428.437 632.841 428.43 632.841 428.416C632.841 428.409 632.841 428.401 632.841 428.387C632.841 428.38 632.841 428.373 632.841 428.358C632.841 428.351 632.841 428.344 632.841 428.33C632.841 428.323 632.841 428.315 632.841 428.301C632.841 428.294 632.841 428.287 632.841 428.272C632.841 428.265 632.841 428.258 632.841 428.244C632.841 428.236 632.841 428.229 632.841 428.215C632.841 428.208 632.841 428.201 632.841 428.186C632.841 428.179 632.841 428.172 632.841 428.157C632.841 428.15 632.841 428.143 632.841 428.129C632.841 428.122 632.841 428.114 632.841 428.1C632.841 428.093 632.841 428.086 632.841 428.071C632.841 428.064 632.841 428.057 632.841 428.043C632.841 428.035 632.841 428.028 632.841 428.014C632.841 428.007 632.841 428 632.841 427.985C632.841 427.978 632.841 427.971 632.841 427.956C632.841 427.949 632.841 427.942 632.841 427.928C632.841 427.921 632.841 427.913 632.841 427.899C632.841 427.892 632.841 427.885 632.841 427.87C632.841 427.863 632.841 427.856 632.841 427.842C632.841 427.834 632.841 427.827 632.841 427.813C632.841 427.806 632.841 427.799 632.841 427.784C632.841 427.777 632.841 427.77 632.841 427.755C632.841 427.748 632.841 427.741 632.841 427.727C632.841 427.72 632.841 427.712 632.841 427.698C632.841 427.691 632.841 427.684 632.841 427.669C632.841 427.662 632.841 427.655 632.841 427.641C632.841 427.633 632.841 427.626 632.841 427.612C632.841 427.605 632.841 427.598 632.841 427.583C632.841 427.576 632.841 427.569 632.841 427.555C632.841 427.547 632.841 427.54 632.841 427.526C632.841 427.519 632.841 427.511 632.841 427.497C632.841 427.49 632.841 427.483 632.841 427.468C632.841 427.461 632.841 427.454 632.841 427.44C632.841 427.432 632.841 427.425 632.841 427.411C632.841 427.404 632.841 427.397 632.841 427.382C632.841 427.375 632.841 427.368 632.841 427.354C632.841 427.346 632.841 427.339 632.841 427.325C632.841 427.318 632.841 427.31 632.841 427.296C632.841 427.289 632.841 427.282 632.841 427.267C632.841 427.26 632.841 427.253 632.841 427.239C632.841 427.232 632.841 427.224 632.841 427.21C632.841 427.203 632.841 427.196 632.841 427.181C632.841 427.174 632.841 427.167 632.841 427.153C632.841 427.145 632.841 427.138 632.841 427.124C632.841 427.117 632.841 427.11 632.841 427.095C632.841 427.088 632.841 427.081 632.841 427.066C632.841 427.059 632.841 427.052 632.841 427.038C632.841 427.031 632.841 427.023 632.841 427.009C632.841 427.002 632.841 426.995 632.841 426.98C632.841 426.973 632.841 426.966 632.841 426.952C632.841 426.944 632.841 426.937 632.841 426.923C632.841 426.916 632.841 426.909 632.841 426.894C632.841 426.887 632.841 426.88 632.841 426.865C632.841 426.858 632.841 426.851 632.841 426.837C632.841 426.83 632.841 426.822 632.841 426.808C632.841 426.801 632.841 426.794 632.841 426.779C632.841 426.772 632.841 426.765 632.841 426.751C632.841 426.743 632.841 426.736 632.841 426.722C632.841 426.715 632.841 426.708 632.841 426.693C632.841 426.686 632.841 426.679 632.841 426.664C632.841 426.657 632.841 426.65 632.841 426.636C632.841 426.629 632.841 426.621 632.841 426.607C632.841 426.6 632.841 426.593 632.841 426.578C632.841 426.571 632.841 426.564 632.841 426.55C632.841 426.542 632.841 426.535 632.841 426.521C632.841 426.514 632.841 426.507 632.841 426.492C632.841 426.485 632.841 426.478 632.841 426.464C632.841 426.456 632.841 426.449 632.841 426.435C632.841 426.428 632.841 426.42 632.841 426.406C632.841 426.399 632.841 426.392 632.841 426.377C632.841 426.37 632.841 426.363 632.841 426.349C632.841 426.341 632.841 426.334 632.841 426.32C632.841 426.313 632.841 426.306 632.841 426.291C632.841 426.284 632.841 426.277 632.841 426.263C632.841 426.255 632.841 426.248 632.841 426.234C632.841 426.227 632.841 426.219 632.841 426.205C632.841 426.198 632.841 426.191 632.841 426.176C632.841 426.169 632.841 426.162 632.841 426.148C632.841 426.141 632.841 426.133 632.841 426.119C632.841 426.112 632.841 426.105 632.841 426.09C632.841 426.083 632.841 426.076 632.841 426.062C632.841 426.054 632.841 426.047 632.841 426.033C632.841 426.026 632.841 426.018 632.841 426.004C632.841 425.997 632.841 425.99 632.841 425.975C632.841 425.968 632.841 425.961 632.841 425.947C632.841 425.94 632.841 425.932 632.841 425.918C632.841 425.911 632.841 425.904 632.841 425.889C632.841 425.882 632.841 425.875 632.841 425.861C632.841 425.853 632.841 425.846 632.841 425.832C632.841 425.825 632.841 425.818 632.841 425.803C632.841 425.796 632.841 425.789 632.841 425.774C632.841 425.767 632.841 425.76 632.841 425.746C632.841 425.739 632.841 425.731 632.841 425.717C632.841 425.71 632.841 425.703 632.841 425.688C632.841 425.681 632.841 425.674 632.841 425.66Z" fill="#5164B8"/>
<path d="M631.515 424.109L603.091 410.522C601.318 409.675 598.44 409.675 596.667 410.522L568.244 424.109C566.471 424.956 566.471 426.334 568.244 427.181L596.667 440.769C598.44 441.616 601.318 441.616 603.091 440.769L631.515 427.181C633.288 426.334 633.288 424.956 631.515 424.109Z" fill="#70B4FC"/>
<path d="M624.115 420.571L603.091 410.522C601.318 409.675 598.44 409.675 596.667 410.522L568.244 424.109C566.471 424.956 566.471 426.334 568.244 427.181L575.5 430.648C579.627 431.373 584.085 431.768 588.729 431.768C604.627 431.768 618.265 427.153 624.115 420.578V420.571Z" fill="#94DFFF"/>
<path d="M599.875 417.319C618.411 417.319 633.438 403.443 633.438 386.326C633.438 369.209 618.411 355.333 599.875 355.333C581.339 355.333 566.312 369.209 566.312 386.326C566.312 403.443 581.339 417.319 599.875 417.319Z" fill="#9180B7"/>
<path d="M599.875 420.449C618.411 420.449 633.438 406.572 633.438 389.455C633.438 372.338 618.411 358.462 599.875 358.462C581.339 358.462 566.312 372.338 566.312 389.455C566.312 406.572 581.339 420.449 599.875 420.449Z" fill="#FBF9FC"/>
<path d="M593.141 374.748V399.382H587.708C585.31 399.382 583.215 401.227 583.15 403.624C583.085 406.086 585.059 408.096 587.507 408.096H590.105C593.708 408.096 596.622 405.174 596.622 401.578V384.302C596.622 383.893 596.931 383.548 597.34 383.505L612.004 381.933C612.478 381.883 612.887 382.256 612.887 382.73V395.025H607.69C605.293 395.025 603.197 396.87 603.133 399.267C603.068 401.729 605.042 403.739 607.489 403.739H610.088C613.691 403.739 616.605 400.818 616.605 397.222V371.612C616.605 371.124 616.174 370.75 615.693 370.822L593.83 373.959C593.436 374.016 593.141 374.354 593.141 374.748Z" fill="url(#paint21_linear_1_4146)" style="mix-blend-mode:multiply"/>
<path d="M615.693 370.815L593.83 373.952C593.435 374.009 593.141 374.346 593.141 374.741V390.281C594.296 390.058 595.452 389.807 596.629 389.534V384.295C596.629 383.886 596.938 383.541 597.347 383.498L612.011 381.926C612.484 381.876 612.894 382.249 612.894 382.723V384.165C614.171 383.606 615.413 383.024 616.612 382.428V371.605C616.612 371.116 616.181 370.743 615.7 370.815H615.693Z" fill="white" fill-opacity="0.2"/>
<path d="M406.646 539.749C406.646 539.189 406.208 538.629 405.318 538.198L376.894 524.611C375.121 523.764 372.243 523.764 370.47 524.611L342.047 538.198C341.149 538.629 340.712 539.189 340.719 539.749C340.719 539.756 340.719 539.763 340.719 539.777C340.719 539.785 340.719 539.792 340.719 539.806C340.719 539.813 340.719 539.82 340.719 539.835C340.719 539.842 340.719 539.849 340.719 539.864C340.719 539.871 340.719 539.878 340.719 539.892C340.719 539.899 340.719 539.907 340.719 539.921C340.719 539.928 340.719 539.935 340.719 539.95C340.719 539.957 340.719 539.964 340.719 539.978C340.719 539.986 340.719 539.993 340.719 540.007C340.719 540.014 340.719 540.021 340.719 540.036C340.719 540.043 340.719 540.05 340.719 540.065C340.719 540.072 340.719 540.079 340.719 540.093C340.719 540.1 340.719 540.108 340.719 540.122C340.719 540.129 340.719 540.136 340.719 540.151C340.719 540.158 340.719 540.165 340.719 540.179C340.719 540.187 340.719 540.194 340.719 540.208C340.719 540.215 340.719 540.222 340.719 540.237C340.719 540.244 340.719 540.251 340.719 540.266C340.719 540.273 340.719 540.28 340.719 540.294C340.719 540.301 340.719 540.309 340.719 540.323C340.719 540.33 340.719 540.337 340.719 540.352C340.719 540.359 340.719 540.366 340.719 540.38C340.719 540.388 340.719 540.395 340.719 540.409C340.719 540.416 340.719 540.423 340.719 540.438C340.719 540.445 340.719 540.452 340.719 540.466C340.719 540.474 340.719 540.481 340.719 540.495C340.719 540.502 340.719 540.51 340.719 540.524C340.719 540.531 340.719 540.538 340.719 540.553C340.719 540.56 340.719 540.567 340.719 540.581C340.719 540.589 340.719 540.596 340.719 540.61C340.719 540.617 340.719 540.624 340.719 540.639C340.719 540.646 340.719 540.653 340.719 540.667C340.719 540.675 340.719 540.682 340.719 540.696C340.719 540.703 340.719 540.711 340.719 540.725C340.719 540.732 340.719 540.739 340.719 540.754C340.719 540.761 340.719 540.768 340.719 540.782C340.719 540.789 340.719 540.797 340.719 540.811C340.719 540.818 340.719 540.825 340.719 540.84C340.719 540.847 340.719 540.854 340.719 540.868C340.719 540.876 340.719 540.883 340.719 540.897C340.719 540.904 340.719 540.912 340.719 540.926C340.719 540.933 340.719 540.94 340.719 540.955C340.719 540.962 340.719 540.969 340.719 540.983C340.719 540.99 340.719 540.998 340.719 541.012C340.719 541.019 340.719 541.026 340.719 541.041C340.719 541.048 340.719 541.055 340.719 541.069C340.719 541.077 340.719 541.084 340.719 541.098C340.719 541.105 340.719 541.112 340.719 541.127C340.719 541.134 340.719 541.141 340.719 541.156C340.719 541.163 340.719 541.17 340.719 541.184C340.719 541.191 340.719 541.199 340.719 541.213C340.719 541.22 340.719 541.227 340.719 541.242C340.719 541.249 340.719 541.256 340.719 541.27C340.719 541.278 340.719 541.285 340.719 541.299C340.719 541.306 340.719 541.313 340.719 541.328C340.719 541.335 340.719 541.342 340.719 541.357C340.719 541.364 340.719 541.371 340.719 541.385C340.719 541.392 340.719 541.4 340.719 541.414C340.719 541.421 340.719 541.428 340.719 541.443C340.719 541.45 340.719 541.457 340.719 541.471C340.719 541.479 340.719 541.486 340.719 541.5C340.719 541.507 340.719 541.514 340.719 541.529C340.719 541.536 340.719 541.543 340.719 541.558C340.719 541.565 340.719 541.572 340.719 541.586C340.719 541.593 340.719 541.601 340.719 541.615C340.719 541.622 340.719 541.629 340.719 541.644C340.719 541.651 340.719 541.658 340.719 541.672C340.719 541.68 340.719 541.687 340.719 541.701C340.719 541.708 340.719 541.715 340.719 541.73C340.719 541.737 340.719 541.744 340.719 541.758C340.719 541.766 340.719 541.773 340.719 541.787C340.719 541.794 340.719 541.802 340.719 541.816C340.719 541.823 340.719 541.83 340.719 541.845C340.719 541.852 340.719 541.859 340.719 541.873C340.719 541.881 340.719 541.888 340.719 541.902C340.719 541.909 340.719 541.916 340.719 541.931C340.719 541.938 340.719 541.945 340.719 541.959C340.719 541.967 340.719 541.974 340.719 541.988C340.719 541.995 340.719 542.003 340.719 542.017C340.719 542.024 340.719 542.031 340.719 542.046C340.719 542.053 340.719 542.06 340.719 542.074C340.719 542.081 340.719 542.089 340.719 542.103C340.719 542.11 340.719 542.117 340.719 542.132C340.719 542.139 340.719 542.146 340.719 542.16C340.719 542.168 340.719 542.175 340.719 542.189C340.719 542.196 340.719 542.203 340.719 542.218C340.719 542.225 340.719 542.232 340.719 542.247C340.719 542.254 340.719 542.261 340.719 542.275C340.719 542.282 340.719 542.29 340.719 542.304C340.719 542.311 340.719 542.318 340.719 542.333C340.719 542.34 340.719 542.347 340.719 542.361C340.719 542.369 340.719 542.376 340.719 542.39C340.719 542.397 340.719 542.404 340.719 542.419C340.719 542.426 340.719 542.433 340.719 542.448C340.719 542.455 340.719 542.462 340.719 542.476C340.719 542.483 340.719 542.491 340.719 542.505C340.719 542.512 340.719 542.519 340.719 542.534C340.719 542.541 340.719 542.548 340.719 542.562C340.719 542.57 340.719 542.577 340.719 542.591C340.719 542.598 340.719 542.605 340.719 542.62C340.719 543.18 341.157 543.74 342.047 544.17L370.47 557.757C372.243 558.604 375.121 558.604 376.894 557.757L405.318 544.17C406.215 543.74 406.653 543.18 406.646 542.62C406.646 542.613 406.646 542.605 406.646 542.591C406.646 542.584 406.646 542.577 406.646 542.562C406.646 542.555 406.646 542.548 406.646 542.534C406.646 542.526 406.646 542.519 406.646 542.505C406.646 542.498 406.646 542.491 406.646 542.476C406.646 542.469 406.646 542.462 406.646 542.448C406.646 542.44 406.646 542.433 406.646 542.419C406.646 542.412 406.646 542.404 406.646 542.39C406.646 542.383 406.646 542.376 406.646 542.361C406.646 542.354 406.646 542.347 406.646 542.333C406.646 542.326 406.646 542.318 406.646 542.304C406.646 542.297 406.646 542.29 406.646 542.275C406.646 542.268 406.646 542.261 406.646 542.247C406.646 542.239 406.646 542.232 406.646 542.218C406.646 542.211 406.646 542.203 406.646 542.189C406.646 542.182 406.646 542.175 406.646 542.16C406.646 542.153 406.646 542.146 406.646 542.132C406.646 542.125 406.646 542.117 406.646 542.103C406.646 542.096 406.646 542.089 406.646 542.074C406.646 542.067 406.646 542.06 406.646 542.046C406.646 542.038 406.646 542.031 406.646 542.017C406.646 542.01 406.646 542.003 406.646 541.988C406.646 541.981 406.646 541.974 406.646 541.959C406.646 541.952 406.646 541.945 406.646 541.931C406.646 541.924 406.646 541.916 406.646 541.902C406.646 541.895 406.646 541.888 406.646 541.873C406.646 541.866 406.646 541.859 406.646 541.845C406.646 541.837 406.646 541.83 406.646 541.816C406.646 541.809 406.646 541.802 406.646 541.787C406.646 541.78 406.646 541.773 406.646 541.758C406.646 541.751 406.646 541.744 406.646 541.73C406.646 541.723 406.646 541.715 406.646 541.701C406.646 541.694 406.646 541.687 406.646 541.672C406.646 541.665 406.646 541.658 406.646 541.644C406.646 541.636 406.646 541.629 406.646 541.615C406.646 541.608 406.646 541.601 406.646 541.586C406.646 541.579 406.646 541.572 406.646 541.558C406.646 541.55 406.646 541.543 406.646 541.529C406.646 541.522 406.646 541.514 406.646 541.5C406.646 541.493 406.646 541.486 406.646 541.471C406.646 541.464 406.646 541.457 406.646 541.443C406.646 541.435 406.646 541.428 406.646 541.414C406.646 541.407 406.646 541.4 406.646 541.385C406.646 541.378 406.646 541.371 406.646 541.357C406.646 541.349 406.646 541.342 406.646 541.328C406.646 541.321 406.646 541.313 406.646 541.299C406.646 541.292 406.646 541.285 406.646 541.27C406.646 541.263 406.646 541.256 406.646 541.242C406.646 541.235 406.646 541.227 406.646 541.213C406.646 541.206 406.646 541.199 406.646 541.184C406.646 541.177 406.646 541.17 406.646 541.156C406.646 541.148 406.646 541.141 406.646 541.127C406.646 541.12 406.646 541.112 406.646 541.098C406.646 541.091 406.646 541.084 406.646 541.069C406.646 541.062 406.646 541.055 406.646 541.041C406.646 541.034 406.646 541.026 406.646 541.012C406.646 541.005 406.646 540.998 406.646 540.983C406.646 540.976 406.646 540.969 406.646 540.955C406.646 540.947 406.646 540.94 406.646 540.926C406.646 540.919 406.646 540.912 406.646 540.897C406.646 540.89 406.646 540.883 406.646 540.868C406.646 540.861 406.646 540.854 406.646 540.84C406.646 540.833 406.646 540.825 406.646 540.811C406.646 540.804 406.646 540.797 406.646 540.782C406.646 540.775 406.646 540.768 406.646 540.754C406.646 540.746 406.646 540.739 406.646 540.725C406.646 540.718 406.646 540.711 406.646 540.696C406.646 540.689 406.646 540.682 406.646 540.667C406.646 540.66 406.646 540.653 406.646 540.639C406.646 540.632 406.646 540.624 406.646 540.61C406.646 540.603 406.646 540.596 406.646 540.581C406.646 540.574 406.646 540.567 406.646 540.553C406.646 540.545 406.646 540.538 406.646 540.524C406.646 540.517 406.646 540.51 406.646 540.495C406.646 540.488 406.646 540.481 406.646 540.466C406.646 540.459 406.646 540.452 406.646 540.438C406.646 540.431 406.646 540.423 406.646 540.409C406.646 540.402 406.646 540.395 406.646 540.38C406.646 540.373 406.646 540.366 406.646 540.352C406.646 540.344 406.646 540.337 406.646 540.323C406.646 540.316 406.646 540.309 406.646 540.294C406.646 540.287 406.646 540.28 406.646 540.266C406.646 540.258 406.646 540.251 406.646 540.237C406.646 540.23 406.646 540.222 406.646 540.208C406.646 540.201 406.646 540.194 406.646 540.179C406.646 540.172 406.646 540.165 406.646 540.151C406.646 540.143 406.646 540.136 406.646 540.122C406.646 540.115 406.646 540.108 406.646 540.093C406.646 540.086 406.646 540.079 406.646 540.065C406.646 540.057 406.646 540.05 406.646 540.036C406.646 540.029 406.646 540.021 406.646 540.007C406.646 540 406.646 539.993 406.646 539.978C406.646 539.971 406.646 539.964 406.646 539.95C406.646 539.943 406.646 539.935 406.646 539.921C406.646 539.914 406.646 539.907 406.646 539.892C406.646 539.885 406.646 539.878 406.646 539.864C406.646 539.856 406.646 539.849 406.646 539.835C406.646 539.828 406.646 539.821 406.646 539.806C406.646 539.799 406.646 539.792 406.646 539.777C406.646 539.77 406.646 539.763 406.646 539.749Z" fill="#5164B8"/>
<path d="M405.319 538.198L376.896 524.611C375.123 523.764 372.245 523.764 370.472 524.611L342.048 538.198C340.276 539.045 340.276 540.423 342.048 541.27L370.472 554.858C372.245 555.705 375.123 555.705 376.896 554.858L405.319 541.27C407.092 540.423 407.092 539.045 405.319 538.198Z" fill="#70B4FC"/>
<path d="M397.919 534.66L376.896 524.611C375.123 523.764 372.245 523.764 370.472 524.611L342.048 538.198C340.276 539.045 340.276 540.423 342.048 541.27L349.305 544.737C353.432 545.462 357.889 545.857 362.533 545.857C378.432 545.857 392.069 541.242 397.919 534.667V534.66Z" fill="#94DFFF"/>
<path d="M349.843 479.478H397.524C398.845 479.478 399.921 480.555 399.921 481.875V529.557C399.921 530.877 398.845 531.954 397.524 531.954H349.843C348.522 531.954 347.445 530.877 347.445 529.557V481.875C347.445 480.555 348.522 479.478 349.843 479.478Z" fill="#9180B7"/>
<path d="M397.524 482.213H349.843C348.519 482.213 347.445 483.286 347.445 484.61V532.291C347.445 533.615 348.519 534.689 349.843 534.689H397.524C398.848 534.689 399.921 533.615 399.921 532.291V484.61C399.921 483.286 398.848 482.213 397.524 482.213Z" fill="#FBF9FC"/>
<path d="M392.061 487.136H355.304C353.679 487.136 352.361 488.454 352.361 490.079V526.836C352.361 528.461 353.679 529.779 355.304 529.779H392.061C393.686 529.779 395.004 528.461 395.004 526.836V490.079C395.004 488.454 393.686 487.136 392.061 487.136Z" fill="url(#paint22_linear_1_4146)" fill-opacity="0.5" style="mix-blend-mode:multiply"/>
<path d="M370.987 515.316C364.362 516.845 357.902 516.802 352.361 515.503V529.772H395.004V498.657C391.322 506.136 382.385 512.689 370.995 515.316H370.987Z" fill="url(#paint23_linear_1_4146)" style="mix-blend-mode:multiply"/>
<path d="M391.882 518.338L382.666 503.006C382.422 502.597 381.819 502.597 381.575 503.006L376.931 510.729C376.68 511.139 376.084 511.139 375.84 510.729L368.497 498.513C368.246 498.104 367.65 498.104 367.406 498.513L355.484 518.345C355.226 518.768 355.534 519.314 356.03 519.314H391.336C391.832 519.314 392.14 518.776 391.882 518.345V518.338Z" fill="white"/>
<path d="M376.422 503.789C378.13 503.789 379.515 502.403 379.515 500.695C379.515 498.987 378.13 497.601 376.422 497.601C374.713 497.601 373.328 498.987 373.328 500.695C373.328 502.403 374.713 503.789 376.422 503.789Z" fill="white"/>
<path d="M632.841 539.749C632.841 539.189 632.403 538.629 631.513 538.198L603.09 524.611C601.317 523.764 598.438 523.764 596.666 524.611L568.242 538.198C567.345 538.629 566.907 539.189 566.914 539.749C566.914 539.756 566.914 539.763 566.914 539.777C566.914 539.784 566.914 539.792 566.914 539.806C566.914 539.813 566.914 539.82 566.914 539.835C566.914 539.842 566.914 539.849 566.914 539.863C566.914 539.871 566.914 539.878 566.914 539.892C566.914 539.899 566.914 539.907 566.914 539.921C566.914 539.928 566.914 539.935 566.914 539.95C566.914 539.957 566.914 539.964 566.914 539.978C566.914 539.985 566.914 539.993 566.914 540.007C566.914 540.014 566.914 540.021 566.914 540.036C566.914 540.043 566.914 540.05 566.914 540.064C566.914 540.072 566.914 540.079 566.914 540.093C566.914 540.1 566.914 540.108 566.914 540.122C566.914 540.129 566.914 540.136 566.914 540.151C566.914 540.158 566.914 540.165 566.914 540.179C566.914 540.186 566.914 540.194 566.914 540.208C566.914 540.215 566.914 540.222 566.914 540.237C566.914 540.244 566.914 540.251 566.914 540.265C566.914 540.273 566.914 540.28 566.914 540.294C566.914 540.301 566.914 540.308 566.914 540.323C566.914 540.33 566.914 540.337 566.914 540.352C566.914 540.359 566.914 540.366 566.914 540.38C566.914 540.387 566.914 540.395 566.914 540.409C566.914 540.416 566.914 540.423 566.914 540.438C566.914 540.445 566.914 540.452 566.914 540.466C566.914 540.474 566.914 540.481 566.914 540.495C566.914 540.502 566.914 540.509 566.914 540.524C566.914 540.531 566.914 540.538 566.914 540.552C566.914 540.56 566.914 540.567 566.914 540.581C566.914 540.588 566.914 540.596 566.914 540.61C566.914 540.617 566.914 540.624 566.914 540.639C566.914 540.646 566.914 540.653 566.914 540.667C566.914 540.675 566.914 540.682 566.914 540.696C566.914 540.703 566.914 540.71 566.914 540.725C566.914 540.732 566.914 540.739 566.914 540.753C566.914 540.761 566.914 540.768 566.914 540.782C566.914 540.789 566.914 540.797 566.914 540.811C566.914 540.818 566.914 540.825 566.914 540.84C566.914 540.847 566.914 540.854 566.914 540.868C566.914 540.875 566.914 540.883 566.914 540.897C566.914 540.904 566.914 540.911 566.914 540.926C566.914 540.933 566.914 540.94 566.914 540.954C566.914 540.962 566.914 540.969 566.914 540.983C566.914 540.99 566.914 540.998 566.914 541.012C566.914 541.019 566.914 541.026 566.914 541.041C566.914 541.048 566.914 541.055 566.914 541.069C566.914 541.076 566.914 541.084 566.914 541.098C566.914 541.105 566.914 541.112 566.914 541.127C566.914 541.134 566.914 541.141 566.914 541.155C566.914 541.163 566.914 541.17 566.914 541.184C566.914 541.191 566.914 541.198 566.914 541.213C566.914 541.22 566.914 541.227 566.914 541.242C566.914 541.249 566.914 541.256 566.914 541.27C566.914 541.277 566.914 541.285 566.914 541.299C566.914 541.306 566.914 541.313 566.914 541.328C566.914 541.335 566.914 541.342 566.914 541.356C566.914 541.364 566.914 541.371 566.914 541.385C566.914 541.392 566.914 541.399 566.914 541.414C566.914 541.421 566.914 541.428 566.914 541.443C566.914 541.45 566.914 541.457 566.914 541.471C566.914 541.478 566.914 541.486 566.914 541.5C566.914 541.507 566.914 541.514 566.914 541.529C566.914 541.536 566.914 541.543 566.914 541.557C566.914 541.565 566.914 541.572 566.914 541.586C566.914 541.593 566.914 541.6 566.914 541.615C566.914 541.622 566.914 541.629 566.914 541.644C566.914 541.651 566.914 541.658 566.914 541.672C566.914 541.679 566.914 541.687 566.914 541.701C566.914 541.708 566.914 541.715 566.914 541.73C566.914 541.737 566.914 541.744 566.914 541.758C566.914 541.766 566.914 541.773 566.914 541.787C566.914 541.794 566.914 541.801 566.914 541.816C566.914 541.823 566.914 541.83 566.914 541.844C566.914 541.852 566.914 541.859 566.914 541.873C566.914 541.88 566.914 541.888 566.914 541.902C566.914 541.909 566.914 541.916 566.914 541.931C566.914 541.938 566.914 541.945 566.914 541.959C566.914 541.967 566.914 541.974 566.914 541.988C566.914 541.995 566.914 542.002 566.914 542.017C566.914 542.024 566.914 542.031 566.914 542.045C566.914 542.053 566.914 542.06 566.914 542.074C566.914 542.081 566.914 542.089 566.914 542.103C566.914 542.11 566.914 542.117 566.914 542.132C566.914 542.139 566.914 542.146 566.914 542.16C566.914 542.167 566.914 542.175 566.914 542.189C566.914 542.196 566.914 542.203 566.914 542.218C566.914 542.225 566.914 542.232 566.914 542.246C566.914 542.254 566.914 542.261 566.914 542.275C566.914 542.282 566.914 542.289 566.914 542.304C566.914 542.311 566.914 542.318 566.914 542.333C566.914 542.34 566.914 542.347 566.914 542.361C566.914 542.368 566.914 542.376 566.914 542.39C566.914 542.397 566.914 542.404 566.914 542.419C566.914 542.426 566.914 542.433 566.914 542.447C566.914 542.455 566.914 542.462 566.914 542.476C566.914 542.483 566.914 542.49 566.914 542.505C566.914 542.512 566.914 542.519 566.914 542.534C566.914 542.541 566.914 542.548 566.914 542.562C566.914 542.569 566.914 542.577 566.914 542.591C566.914 542.598 566.914 542.605 566.914 542.62C566.914 543.18 567.352 543.739 568.242 544.17L596.666 557.757C598.438 558.604 601.317 558.604 603.09 557.757L631.513 544.17C632.41 543.739 632.848 543.18 632.841 542.62C632.841 542.612 632.841 542.605 632.841 542.591C632.841 542.584 632.841 542.577 632.841 542.562C632.841 542.555 632.841 542.548 632.841 542.534C632.841 542.526 632.841 542.519 632.841 542.505C632.841 542.498 632.841 542.49 632.841 542.476C632.841 542.469 632.841 542.462 632.841 542.447C632.841 542.44 632.841 542.433 632.841 542.419C632.841 542.412 632.841 542.404 632.841 542.39C632.841 542.383 632.841 542.376 632.841 542.361C632.841 542.354 632.841 542.347 632.841 542.333C632.841 542.325 632.841 542.318 632.841 542.304C632.841 542.297 632.841 542.29 632.841 542.275C632.841 542.268 632.841 542.261 632.841 542.246C632.841 542.239 632.841 542.232 632.841 542.218C632.841 542.211 632.841 542.203 632.841 542.189C632.841 542.182 632.841 542.175 632.841 542.16C632.841 542.153 632.841 542.146 632.841 542.132C632.841 542.124 632.841 542.117 632.841 542.103C632.841 542.096 632.841 542.089 632.841 542.074C632.841 542.067 632.841 542.06 632.841 542.045C632.841 542.038 632.841 542.031 632.841 542.017C632.841 542.01 632.841 542.002 632.841 541.988C632.841 541.981 632.841 541.974 632.841 541.959C632.841 541.952 632.841 541.945 632.841 541.931C632.841 541.923 632.841 541.916 632.841 541.902C632.841 541.895 632.841 541.888 632.841 541.873C632.841 541.866 632.841 541.859 632.841 541.844C632.841 541.837 632.841 541.83 632.841 541.816C632.841 541.809 632.841 541.801 632.841 541.787C632.841 541.78 632.841 541.773 632.841 541.758C632.841 541.751 632.841 541.744 632.841 541.73C632.841 541.722 632.841 541.715 632.841 541.701C632.841 541.694 632.841 541.687 632.841 541.672C632.841 541.665 632.841 541.658 632.841 541.644C632.841 541.636 632.841 541.629 632.841 541.615C632.841 541.608 632.841 541.6 632.841 541.586C632.841 541.579 632.841 541.572 632.841 541.557C632.841 541.55 632.841 541.543 632.841 541.529C632.841 541.521 632.841 541.514 632.841 541.5C632.841 541.493 632.841 541.486 632.841 541.471C632.841 541.464 632.841 541.457 632.841 541.443C632.841 541.435 632.841 541.428 632.841 541.414C632.841 541.407 632.841 541.399 632.841 541.385C632.841 541.378 632.841 541.371 632.841 541.356C632.841 541.349 632.841 541.342 632.841 541.328C632.841 541.321 632.841 541.313 632.841 541.299C632.841 541.292 632.841 541.285 632.841 541.27C632.841 541.263 632.841 541.256 632.841 541.242C632.841 541.234 632.841 541.227 632.841 541.213C632.841 541.206 632.841 541.198 632.841 541.184C632.841 541.177 632.841 541.17 632.841 541.155C632.841 541.148 632.841 541.141 632.841 541.127C632.841 541.12 632.841 541.112 632.841 541.098C632.841 541.091 632.841 541.084 632.841 541.069C632.841 541.062 632.841 541.055 632.841 541.041C632.841 541.033 632.841 541.026 632.841 541.012C632.841 541.005 632.841 540.998 632.841 540.983C632.841 540.976 632.841 540.969 632.841 540.954C632.841 540.947 632.841 540.94 632.841 540.926C632.841 540.919 632.841 540.911 632.841 540.897C632.841 540.89 632.841 540.883 632.841 540.868C632.841 540.861 632.841 540.854 632.841 540.84C632.841 540.832 632.841 540.825 632.841 540.811C632.841 540.804 632.841 540.797 632.841 540.782C632.841 540.775 632.841 540.768 632.841 540.753C632.841 540.746 632.841 540.739 632.841 540.725C632.841 540.718 632.841 540.71 632.841 540.696C632.841 540.689 632.841 540.682 632.841 540.667C632.841 540.66 632.841 540.653 632.841 540.639C632.841 540.631 632.841 540.624 632.841 540.61C632.841 540.603 632.841 540.596 632.841 540.581C632.841 540.574 632.841 540.567 632.841 540.552C632.841 540.545 632.841 540.538 632.841 540.524C632.841 540.517 632.841 540.509 632.841 540.495C632.841 540.488 632.841 540.481 632.841 540.466C632.841 540.459 632.841 540.452 632.841 540.438C632.841 540.43 632.841 540.423 632.841 540.409C632.841 540.402 632.841 540.395 632.841 540.38C632.841 540.373 632.841 540.366 632.841 540.352C632.841 540.344 632.841 540.337 632.841 540.323C632.841 540.316 632.841 540.308 632.841 540.294C632.841 540.287 632.841 540.28 632.841 540.265C632.841 540.258 632.841 540.251 632.841 540.237C632.841 540.229 632.841 540.222 632.841 540.208C632.841 540.201 632.841 540.194 632.841 540.179C632.841 540.172 632.841 540.165 632.841 540.151C632.841 540.143 632.841 540.136 632.841 540.122C632.841 540.115 632.841 540.107 632.841 540.093C632.841 540.086 632.841 540.079 632.841 540.064C632.841 540.057 632.841 540.05 632.841 540.036C632.841 540.029 632.841 540.021 632.841 540.007C632.841 540 632.841 539.993 632.841 539.978C632.841 539.971 632.841 539.964 632.841 539.95C632.841 539.942 632.841 539.935 632.841 539.921C632.841 539.914 632.841 539.907 632.841 539.892C632.841 539.885 632.841 539.878 632.841 539.863C632.841 539.856 632.841 539.849 632.841 539.835C632.841 539.828 632.841 539.82 632.841 539.806C632.841 539.799 632.841 539.792 632.841 539.777C632.841 539.77 632.841 539.763 632.841 539.749Z" fill="#5164B8"/>
<path d="M631.515 538.198L603.091 524.611C601.318 523.764 598.44 523.764 596.667 524.611L568.244 538.198C566.471 539.045 566.471 540.423 568.244 541.27L596.667 554.858C598.44 555.705 601.318 555.705 603.091 554.858L631.515 541.27C633.288 540.423 633.288 539.045 631.515 538.198Z" fill="#70B4FC"/>
<path d="M624.115 534.66L603.091 524.611C601.318 523.764 598.44 523.764 596.667 524.611L568.244 538.198C566.471 539.045 566.471 540.423 568.244 541.27L575.5 544.737C579.627 545.462 584.085 545.857 588.729 545.857C604.627 545.857 618.265 541.242 624.115 534.667V534.66Z" fill="#94DFFF"/>
<path d="M624.021 484.653H575.73C572.971 484.653 570.734 486.89 570.734 489.649V526.965C570.734 529.724 572.971 531.961 575.73 531.961H624.021C626.78 531.961 629.017 529.724 629.017 526.965V489.649C629.017 486.89 626.78 484.653 624.021 484.653Z" fill="#9180B7"/>
<path d="M624.021 487.388H575.73C572.971 487.388 570.734 489.624 570.734 492.383V529.7C570.734 532.459 572.971 534.696 575.73 534.696H624.021C626.78 534.696 629.017 532.459 629.017 529.7V492.383C629.017 489.624 626.78 487.388 624.021 487.388Z" fill="#E8E1EB"/>
<path d="M624.021 487.388H575.73C572.974 487.388 570.734 489.627 570.734 492.383V521.955C577.517 521.948 584.86 521.252 592.44 519.781C607.24 516.902 620.124 511.634 629.017 505.418V492.383C629.017 489.627 626.778 487.388 624.021 487.388Z" fill="white"/>
<path d="M618.31 508.684L591.121 494.235C589.836 493.596 588.336 494.529 588.336 495.965V525.817C588.336 527.317 589.972 528.243 591.257 527.468L618.446 512.057C619.753 511.275 619.674 509.351 618.31 508.677V508.684Z" fill="url(#paint24_linear_1_4146)" style="mix-blend-mode:multiply"/>
<path d="M600.646 513.234C606.424 511.964 611.419 509.631 614.893 506.868L591.121 494.235C589.836 493.596 588.336 494.529 588.336 495.965V514.017C592.011 514.426 596.253 514.203 600.646 513.234Z" fill="white" fill-opacity="0.2"/>
<g filter="url(#filter0_dd_1_4146)">
<path d="M686.078 456.538C686.078 566.741 596.741 656.077 486.539 656.077C376.337 656.077 287 566.741 287 456.538C287 346.336 376.337 257 486.539 257C596.741 257 686.078 346.336 686.078 456.538ZM296.542 456.538C296.542 561.471 381.606 646.535 486.539 646.535C591.471 646.535 676.536 561.471 676.536 456.538C676.536 351.606 591.471 266.541 486.539 266.541C381.606 266.541 296.542 351.606 296.542 456.538Z" fill="url(#paint25_linear_1_4146)"/>
</g>
<defs>
<filter id="filter0_dd_1_4146" x="264.749" y="234.749" width="443.58" height="443.579" filterUnits="userSpaceOnUse" color-interpolation-filters="sRGB">
<feFlood flood-opacity="0" result="BackgroundImageFix"/>
<feColorMatrix in="SourceAlpha" type="matrix" values="0 0 0 0 0 0 0 0 0 0 0 0 0 0 0 0 0 0 127 0" result="hardAlpha"/>
<feOffset/>
<feGaussianBlur stdDeviation="11.1254"/>
<feComposite in2="hardAlpha" operator="out"/>
<feColorMatrix type="matrix" values="0 0 0 0 1 0 0 0 0 0.445833 0 0 0 0 0.855538 0 0 0 1 0"/>
<feBlend mode="normal" in2="BackgroundImageFix" result="effect1_dropShadow_1_4146"/>
<feColorMatrix in="SourceAlpha" type="matrix" values="0 0 0 0 0 0 0 0 0 0 0 0 0 0 0 0 0 0 127 0" result="hardAlpha"/>
<feOffset/>
<feGaussianBlur stdDeviation="9.33095"/>
<feComposite in2="hardAlpha" operator="out"/>
<feColorMatrix type="matrix" values="0 0 0 0 0.575 0 0 0 0 0.652916 0 0 0 0 1 0 0 0 1 0"/>
<feBlend mode="normal" in2="effect1_dropShadow_1_4146" result="effect2_dropShadow_1_4146"/>
<feBlend mode="normal" in="SourceGraphic" in2="effect2_dropShadow_1_4146" result="shape"/>
</filter>
<radialGradient id="paint0_radial_1_4146" cx="0" cy="0" r="1" gradientUnits="userSpaceOnUse" gradientTransform="translate(314.871 691.888) rotate(-60.759) scale(7.99188 7.99189)">
<stop offset="0.38" stop-color="#00D3D6"/>
<stop offset="0.89" stop-color="#00D3D6" stop-opacity="0"/>
</radialGradient>
<radialGradient id="paint1_radial_1_4146" cx="0" cy="0" r="1" gradientUnits="userSpaceOnUse" gradientTransform="translate(234.776 611.96) rotate(-60.759) scale(5.54788 5.54788)">
<stop offset="0.38" stop-color="#00D3D6"/>
<stop offset="0.89" stop-color="#00D3D6" stop-opacity="0"/>
</radialGradient>
<radialGradient id="paint2_radial_1_4146" cx="0" cy="0" r="1" gradientUnits="userSpaceOnUse" gradientTransform="translate(667.615 231.714) rotate(-60.759) scale(5.54789 5.54787)">
<stop offset="0.38" stop-color="#00D3D6"/>
<stop offset="0.89" stop-color="#00D3D6" stop-opacity="0"/>
</radialGradient>
<radialGradient id="paint3_radial_1_4146" cx="0" cy="0" r="1" gradientUnits="userSpaceOnUse" gradientTransform="translate(618.504 656.251) rotate(-60.759) scale(4.24034)">
<stop offset="0.38" stop-color="#00D3D6"/>
<stop offset="0.89" stop-color="#00D3D6" stop-opacity="0"/>
</radialGradient>
<radialGradient id="paint4_radial_1_4146" cx="0" cy="0" r="1" gradientUnits="userSpaceOnUse" gradientTransform="translate(675.217 355.05) rotate(-60.759) scale(3.67823 3.67821)">
<stop offset="0.38" stop-color="#00D3D6"/>
<stop offset="0.89" stop-color="#00D3D6" stop-opacity="0"/>
</radialGradient>
<radialGradient id="paint5_radial_1_4146" cx="0" cy="0" r="1" gradientUnits="userSpaceOnUse" gradientTransform="translate(423.855 731.408) rotate(-60.759) scale(6.31774 6.31774)">
<stop offset="0.38" stop-color="#00D3D6"/>
<stop offset="0.89" stop-color="#00D3D6" stop-opacity="0"/>
</radialGradient>
<radialGradient id="paint6_radial_1_4146" cx="0" cy="0" r="1" gradientUnits="userSpaceOnUse" gradientTransform="translate(291.174 347.302) rotate(-60.759) scale(3.38495 3.38494)">
<stop offset="0.38" stop-color="#00D3D6"/>
<stop offset="0.89" stop-color="#00D3D6" stop-opacity="0"/>
</radialGradient>
<linearGradient id="paint7_linear_1_4146" x1="256.979" y1="470.261" x2="250.467" y2="465.831" gradientUnits="userSpaceOnUse">
<stop offset="0.01" stop-color="white"/>
<stop offset="0.08" stop-color="#EDFFFF"/>
<stop offset="0.42" stop-color="#97FFFF"/>
<stop offset="0.69" stop-color="#58FFFF"/>
<stop offset="0.9" stop-color="#30FFFF"/>
<stop offset="1" stop-color="#22FFFF"/>
</linearGradient>
<linearGradient id="paint8_linear_1_4146" x1="393.565" y1="645.746" x2="388.803" y2="642.52" gradientUnits="userSpaceOnUse">
<stop offset="0.01" stop-color="white"/>
<stop offset="0.08" stop-color="#EDFFFF"/>
<stop offset="0.42" stop-color="#97FFFF"/>
<stop offset="0.69" stop-color="#58FFFF"/>
<stop offset="0.9" stop-color="#30FFFF"/>
<stop offset="1" stop-color="#22FFFF"/>
</linearGradient>
<linearGradient id="paint9_linear_1_4146" x1="543.723" y1="757.368" x2="538.967" y2="754.131" gradientUnits="userSpaceOnUse">
<stop offset="0.01" stop-color="white"/>
<stop offset="0.08" stop-color="#EDFFFF"/>
<stop offset="0.42" stop-color="#97FFFF"/>
<stop offset="0.69" stop-color="#58FFFF"/>
<stop offset="0.9" stop-color="#30FFFF"/>
<stop offset="1" stop-color="#22FFFF"/>
</linearGradient>
<linearGradient id="paint10_linear_1_4146" x1="774.575" y1="340.174" x2="769.819" y2="336.937" gradientUnits="userSpaceOnUse">
<stop offset="0.01" stop-color="white"/>
<stop offset="0.08" stop-color="#EDFFFF"/>
<stop offset="0.42" stop-color="#97FFFF"/>
<stop offset="0.69" stop-color="#58FFFF"/>
<stop offset="0.9" stop-color="#30FFFF"/>
<stop offset="1" stop-color="#22FFFF"/>
</linearGradient>
<linearGradient id="paint11_linear_1_4146" x1="604.596" y1="261.826" x2="599.84" y2="258.589" gradientUnits="userSpaceOnUse">
<stop offset="0.01" stop-color="white"/>
<stop offset="0.08" stop-color="#EDFFFF"/>
<stop offset="0.42" stop-color="#97FFFF"/>
<stop offset="0.69" stop-color="#58FFFF"/>
<stop offset="0.9" stop-color="#30FFFF"/>
<stop offset="1" stop-color="#22FFFF"/>
</linearGradient>
<radialGradient id="paint12_radial_1_4146" cx="0" cy="0" r="1" gradientUnits="userSpaceOnUse" gradientTransform="translate(712.551 565.551) rotate(-60.759) scale(5.54787)">
<stop offset="0.38" stop-color="#00D3D6"/>
<stop offset="0.89" stop-color="#00D3D6" stop-opacity="0"/>
</radialGradient>
<linearGradient id="paint13_linear_1_4146" x1="270.59" y1="540.837" x2="265.834" y2="537.6" gradientUnits="userSpaceOnUse">
<stop offset="0.01" stop-color="white"/>
<stop offset="0.08" stop-color="#EDFFFF"/>
<stop offset="0.42" stop-color="#97FFFF"/>
<stop offset="0.69" stop-color="#58FFFF"/>
<stop offset="0.9" stop-color="#30FFFF"/>
<stop offset="1" stop-color="#22FFFF"/>
</linearGradient>
<radialGradient id="paint14_radial_1_4146" cx="0" cy="0" r="1" gradientUnits="userSpaceOnUse" gradientTransform="translate(216.006 316.006) rotate(-60.759) scale(3.67822 3.67822)">
<stop offset="0.38" stop-color="#00D3D6"/>
<stop offset="0.89" stop-color="#00D3D6" stop-opacity="0"/>
</radialGradient>
<linearGradient id="paint15_linear_1_4146" x1="520.781" y1="381.28" x2="426.035" y2="403.501" gradientUnits="userSpaceOnUse">
<stop stop-color="#95D5FF"/>
<stop offset="1" stop-color="#FF53FF"/>
</linearGradient>
<linearGradient id="paint16_linear_1_4146" x1="458.484" y1="420.942" x2="509.884" y2="420.942" gradientUnits="userSpaceOnUse">
<stop offset="0.01" stop-color="#FFCFF3"/>
<stop offset="0.23" stop-color="#FCA9E7"/>
<stop offset="0.37" stop-color="#FF8AE4"/>
<stop offset="0.48" stop-color="#FF7EE9"/>
<stop offset="0.58" stop-color="#FF7CF6"/>
<stop offset="0.67" stop-color="#EA73FF"/>
<stop offset="0.75" stop-color="#C593FF"/>
<stop offset="0.83" stop-color="#9BB2FF"/>
<stop offset="0.91" stop-color="#8CDCFF"/>
<stop offset="0.98" stop-color="#2FEDF9"/>
<stop offset="1" stop-color="#ADFFFF"/>
</linearGradient>
<linearGradient id="paint17_linear_1_4146" x1="459.398" y1="456.562" x2="508.963" y2="456.562" gradientUnits="userSpaceOnUse">
<stop offset="0.01" stop-color="#FFCFF3"/>
<stop offset="0.23" stop-color="#FCA9E7"/>
<stop offset="0.37" stop-color="#FF8AE4"/>
<stop offset="0.48" stop-color="#FF7EE9"/>
<stop offset="0.58" stop-color="#FF7CF6"/>
<stop offset="0.67" stop-color="#EA73FF"/>
<stop offset="0.75" stop-color="#C593FF"/>
<stop offset="0.83" stop-color="#9BB2FF"/>
<stop offset="0.91" stop-color="#8CDCFF"/>
<stop offset="0.98" stop-color="#2FEDF9"/>
<stop offset="1" stop-color="#ADFFFF"/>
</linearGradient>
<linearGradient id="paint18_linear_1_4146" x1="484.191" y1="420.935" x2="509.884" y2="420.935" gradientUnits="userSpaceOnUse">
<stop offset="0.01" stop-color="#FFCFF3"/>
<stop offset="0.23" stop-color="#FCA9E7"/>
<stop offset="0.37" stop-color="#FF8AE4"/>
<stop offset="0.48" stop-color="#FF7EE9"/>
<stop offset="0.58" stop-color="#FF7CF6"/>
<stop offset="0.67" stop-color="#EA73FF"/>
<stop offset="0.75" stop-color="#C593FF"/>
<stop offset="0.83" stop-color="#9BB2FF"/>
<stop offset="0.91" stop-color="#8CDCFF"/>
<stop offset="0.98" stop-color="#2FEDF9"/>
<stop offset="1" stop-color="#ADFFFF"/>
</linearGradient>
<linearGradient id="paint19_linear_1_4146" x1="484.406" y1="456.538" x2="508.97" y2="456.538" gradientUnits="userSpaceOnUse">
<stop offset="0.01" stop-color="#FFCFF3"/>
<stop offset="0.23" stop-color="#FCA9E7"/>
<stop offset="0.37" stop-color="#FF8AE4"/>
<stop offset="0.48" stop-color="#FF7EE9"/>
<stop offset="0.58" stop-color="#FF7CF6"/>
<stop offset="0.67" stop-color="#EA73FF"/>
<stop offset="0.75" stop-color="#C593FF"/>
<stop offset="0.83" stop-color="#9BB2FF"/>
<stop offset="0.91" stop-color="#8CDCFF"/>
<stop offset="0.98" stop-color="#2FEDF9"/>
<stop offset="1" stop-color="#ADFFFF"/>
</linearGradient>
<linearGradient id="paint20_linear_1_4146" x1="353.703" y1="390.423" x2="393.654" y2="390.423" gradientUnits="userSpaceOnUse">
<stop offset="0.01" stop-color="#FFCFF3"/>
<stop offset="0.23" stop-color="#FCA9E7"/>
<stop offset="0.37" stop-color="#FF8AE4"/>
<stop offset="0.48" stop-color="#FF7EE9"/>
<stop offset="0.58" stop-color="#FF7CF6"/>
<stop offset="0.67" stop-color="#EA73FF"/>
<stop offset="0.75" stop-color="#C593FF"/>
<stop offset="0.83" stop-color="#9BB2FF"/>
<stop offset="0.91" stop-color="#8CDCFF"/>
<stop offset="0.98" stop-color="#2FEDF9"/>
<stop offset="1" stop-color="#ADFFFF"/>
</linearGradient>
<linearGradient id="paint21_linear_1_4146" x1="583.148" y1="389.453" x2="616.605" y2="389.453" gradientUnits="userSpaceOnUse">
<stop offset="0.01" stop-color="#FF6BD9"/>
<stop offset="0.23" stop-color="#FF7CDD"/>
<stop offset="0.37" stop-color="#FF70DE"/>
<stop offset="0.425" stop-color="#FF71E1"/>
<stop offset="0.48" stop-color="#FF75E7"/>
<stop offset="0.58" stop-color="#FF72F5"/>
<stop offset="0.67" stop-color="#E971FF"/>
<stop offset="0.75" stop-color="#CA9DFF"/>
<stop offset="0.83" stop-color="#87A2FF"/>
<stop offset="0.91" stop-color="#8BDCFF"/>
<stop offset="0.98" stop-color="#2FEDF9"/>
<stop offset="1" stop-color="#B0FDFD"/>
</linearGradient>
<linearGradient id="paint22_linear_1_4146" x1="352.361" y1="508.456" x2="395.004" y2="508.456" gradientUnits="userSpaceOnUse">
<stop offset="0.01" stop-color="#EA00AD"/>
<stop offset="0.23" stop-color="#E802AD"/>
<stop offset="0.37" stop-color="#E10AB0"/>
<stop offset="0.48" stop-color="#D619B5"/>
<stop offset="0.58" stop-color="#C62DBB"/>
<stop offset="0.67" stop-color="#B148C4"/>
<stop offset="0.75" stop-color="#9768CE"/>
<stop offset="0.83" stop-color="#798FDB"/>
<stop offset="0.91" stop-color="#56BCE9"/>
<stop offset="0.98" stop-color="#2FEDF9"/>
<stop offset="1" stop-color="#22FFFF"/>
</linearGradient>
<linearGradient id="paint23_linear_1_4146" x1="352.361" y1="514.213" x2="395.004" y2="514.213" gradientUnits="userSpaceOnUse">
<stop offset="0.01" stop-color="#FFCFF3"/>
<stop offset="0.23" stop-color="#FCA9E7"/>
<stop offset="0.37" stop-color="#FF8AE4"/>
<stop offset="0.48" stop-color="#FF7EE9"/>
<stop offset="0.58" stop-color="#FF7CF6"/>
<stop offset="0.67" stop-color="#EA73FF"/>
<stop offset="0.75" stop-color="#C593FF"/>
<stop offset="0.83" stop-color="#9BB2FF"/>
<stop offset="0.91" stop-color="#8CDCFF"/>
<stop offset="0.98" stop-color="#2FEDF9"/>
<stop offset="1" stop-color="#ADFFFF"/>
</linearGradient>
<linearGradient id="paint24_linear_1_4146" x1="588.336" y1="510.888" x2="619.381" y2="510.888" gradientUnits="userSpaceOnUse">
<stop offset="0.01" stop-color="#FF82DE"/>
<stop offset="0.23" stop-color="#FF81DF"/>
<stop offset="0.37" stop-color="#FF89E4"/>
<stop offset="0.48" stop-color="#FF7CE8"/>
<stop offset="0.58" stop-color="#FF76F5"/>
<stop offset="0.67" stop-color="#EB7BFF"/>
<stop offset="0.75" stop-color="#C696FF"/>
<stop offset="0.83" stop-color="#9DB2FE"/>
<stop offset="0.91" stop-color="#91DDFF"/>
<stop offset="0.98" stop-color="#2FEDF9"/>
<stop offset="1" stop-color="#8EFFFF"/>
</linearGradient>
<linearGradient id="paint25_linear_1_4146" x1="619.565" y1="257" x2="275.167" y2="337.77" gradientUnits="userSpaceOnUse">
<stop stop-color="#B4E1FF"/>
<stop offset="1" stop-color="#FFBCFF"/>
</linearGradient>
<clipPath id="clip0_1_4146">
<rect width="273.684" height="117.692" fill="white" transform="translate(349.445 426.392)"/>
</clipPath>
<clipPath id="clip1_1_4146">
<rect width="140.28" height="162.265" fill="white" transform="translate(414.045 376.148)"/>
</clipPath>
</defs>
</svg>
